# Blender 4.2.3 LTS
# www.blender.org
o Cone
v 0.000000 6.744273 2.054554
v 0.400824 6.744273 2.015077
v 0.786244 6.744273 1.898161
v 1.141449 6.744273 1.708300
v 1.452789 6.744273 1.452790
v 1.708300 6.744273 1.141449
v 1.898161 6.744273 0.786244
v 2.015077 6.744273 0.400824
v 2.054555 6.744273 0.000000
v 2.015077 6.744273 -0.400824
v 1.898161 6.744273 -0.786244
v 1.708300 6.744273 -1.141449
v 1.452789 6.744273 -1.452789
v 1.141449 6.744273 -1.708300
v 0.786244 6.744273 -1.898161
v 0.400824 6.744273 -2.015077
v 0.000000 6.744273 -2.054554
v -0.400824 6.744273 -2.015077
v -0.786244 6.744273 -1.898161
v -1.141449 6.744273 -1.708300
v -1.452789 6.744273 -1.452789
v -1.708300 6.744273 -1.141449
v -1.898161 6.744273 -0.786244
v -2.015077 6.744273 -0.400824
v -2.054554 6.744273 0.000000
v -2.015077 6.744273 0.400824
v -1.898161 6.744273 0.786244
v -1.708300 6.744273 1.141449
v -1.452789 6.744273 1.452790
v -1.141449 6.744273 1.708300
v -0.786244 6.744273 1.898161
v -0.400824 6.744273 2.015077
v 0.000000 5.569293 -0.000000
v -1.000000 0.000000 1.000000
v -1.000000 2.000000 1.000000
v -1.000000 0.000000 -1.000000
v -1.000000 2.000000 -1.000000
v 1.000000 0.000000 1.000000
v 1.000000 2.000000 1.000000
v 1.000000 0.000000 -1.000000
v 1.000000 2.000000 -1.000000
v -1.000000 3.418874 1.000000
v -1.000000 3.418874 -1.000000
v 1.000000 3.418874 -1.000000
v 1.000000 3.418874 1.000000
v -1.000000 3.702999 1.000000
v -1.000000 3.702999 -1.000000
v 1.000000 3.702999 -1.000000
v 1.000000 3.702999 1.000000
v -0.125215 2.000000 1.488997
v -0.125215 2.175947 1.488997
v -0.125215 2.000000 0.952918
v -0.125215 2.175947 0.952918
v 0.084849 2.000000 1.488997
v 0.084849 2.175947 1.488997
v 0.084849 2.000000 0.952918
v 0.084849 2.175947 0.952918
v -0.050000 1.000000 7.034325
v 0.021939 1.000000 7.034325
v -0.050000 3.067783 7.034325
v 0.021939 3.067783 7.034325
v -0.050000 1.000000 1.382171
v 0.021939 1.000000 1.382171
v -0.050000 3.067783 1.382171
v 0.021939 3.067783 1.382171
v 0.000000 3.641071 0.598711
v 0.000000 3.938394 0.896034
v 0.000000 4.326865 1.056944
v 0.000000 4.537105 1.077651
v 0.000000 4.747344 1.056944
v 0.000000 5.135816 0.896034
v -0.041016 3.480160 0.206200
v -0.080455 3.541485 0.404475
v -0.116803 3.641071 0.587207
v -0.148662 3.775090 0.747372
v -0.174807 3.938394 0.878817
v -0.194236 4.124705 0.976489
v -0.206200 4.326865 1.036635
v -0.210239 4.537105 1.056944
v -0.206200 4.747344 1.036635
v -0.194236 4.949504 0.976489
v -0.174807 5.135816 0.878817
v -0.148662 5.299119 0.747372
v -0.116803 5.433139 0.587207
v -0.080455 5.532724 0.404475
v -0.041016 5.594049 0.206200
v -0.080455 3.480160 0.194236
v -0.157818 3.541485 0.381007
v -0.229117 3.641071 0.553137
v -0.291610 3.775090 0.704009
v -0.342897 3.938394 0.827827
v -0.381007 4.124705 0.919833
v -0.404475 4.326865 0.976489
v -0.412399 4.537105 0.995620
v -0.404475 4.747344 0.976489
v -0.381007 4.949504 0.919833
v -0.342897 5.135816 0.827827
v -0.291610 5.299119 0.704009
v -0.229117 5.433139 0.553137
v -0.157818 5.532724 0.381007
v -0.080455 5.594049 0.194236
v -0.116803 3.480160 0.174808
v -0.229117 3.541485 0.342897
v -0.332626 3.641071 0.497810
v -0.423352 3.775090 0.633592
v -0.497810 3.938394 0.745025
v -0.553137 4.124705 0.827827
v -0.587207 4.326865 0.878817
v -0.598711 4.537105 0.896034
v -0.587207 4.747344 0.878817
v -0.553137 4.949504 0.827827
v -0.497810 5.135816 0.745025
v -0.423352 5.299119 0.633592
v -0.332626 5.433139 0.497810
v -0.229117 5.532724 0.342897
v -0.116803 5.594049 0.174808
v -0.148662 3.480160 0.148662
v -0.291610 3.541485 0.291610
v -0.423352 3.641071 0.423352
v -0.538825 3.775090 0.538826
v -0.633592 3.938394 0.633592
v -0.704009 4.124705 0.704009
v -0.747372 4.326865 0.747372
v -0.762014 4.537105 0.762014
v -0.747372 4.747344 0.747372
v -0.704009 4.949504 0.704009
v -0.633592 5.135816 0.633592
v -0.538825 5.299119 0.538826
v -0.423352 5.433139 0.423352
v -0.291610 5.532724 0.291610
v -0.148662 5.594049 0.148662
v -0.174807 3.480160 0.116803
v -0.342897 3.541485 0.229117
v -0.497810 3.641071 0.332626
v -0.633592 3.775090 0.423352
v -0.745025 3.938394 0.497810
v -0.827827 4.124705 0.553137
v -0.878817 4.326865 0.587207
v -0.896034 4.537105 0.598711
v -0.878817 4.747344 0.587207
v -0.827827 4.949504 0.553137
v -0.745025 5.135816 0.497810
v -0.633592 5.299119 0.423352
v -0.497810 5.433139 0.332626
v -0.342897 5.532724 0.229117
v -0.174807 5.594049 0.116803
v 0.000000 3.459454 -0.000000
v -0.194236 3.480160 0.080455
v -0.381007 3.541485 0.157818
v -0.553137 3.641071 0.229117
v -0.704009 3.775090 0.291610
v -0.827827 3.938394 0.342897
v -0.919832 4.124705 0.381007
v -0.976489 4.326865 0.404475
v -0.995619 4.537105 0.412399
v -0.976489 4.747344 0.404475
v -0.919832 4.949504 0.381007
v -0.827827 5.135816 0.342897
v -0.704009 5.299119 0.291610
v -0.553137 5.433139 0.229117
v -0.381007 5.532724 0.157818
v -0.194236 5.594049 0.080455
v -0.206199 3.480160 0.041016
v -0.404475 3.541485 0.080455
v -0.587207 3.641071 0.116803
v -0.747372 3.775090 0.148662
v -0.878817 3.938394 0.174807
v -0.976489 4.124705 0.194236
v -1.036635 4.326865 0.206199
v -1.056944 4.537105 0.210239
v -1.036635 4.747344 0.206199
v -0.976489 4.949504 0.194236
v -0.878817 5.135816 0.174807
v -0.747372 5.299119 0.148662
v -0.587207 5.433139 0.116803
v -0.404475 5.532724 0.080455
v -0.206199 5.594049 0.041016
v -0.210239 3.480160 -0.000000
v -0.412399 3.541485 -0.000000
v -0.598711 3.641071 -0.000000
v -0.762014 3.775090 -0.000000
v -0.896034 3.938394 -0.000000
v -0.995620 4.124705 0.000000
v -1.056944 4.326865 -0.000000
v -1.077651 4.537105 -0.000000
v -1.056944 4.747344 -0.000000
v -0.995620 4.949504 0.000000
v -0.896034 5.135816 -0.000000
v -0.762014 5.299119 -0.000000
v -0.598711 5.433139 -0.000000
v -0.412399 5.532724 -0.000000
v -0.210239 5.594049 -0.000000
v -0.206199 3.480160 -0.041016
v -0.404475 3.541485 -0.080455
v -0.587207 3.641071 -0.116803
v -0.747372 3.775090 -0.148662
v -0.878817 3.938394 -0.174808
v -0.976489 4.124705 -0.194236
v -1.036635 4.326865 -0.206200
v -1.056944 4.537105 -0.210239
v -1.036635 4.747344 -0.206200
v -0.976489 4.949504 -0.194236
v -0.878817 5.135816 -0.174808
v -0.747372 5.299119 -0.148662
v -0.587207 5.433139 -0.116803
v -0.404475 5.532724 -0.080455
v -0.206199 5.594049 -0.041016
v -0.194236 3.480160 -0.080455
v -0.381007 3.541485 -0.157818
v -0.553136 3.641071 -0.229117
v -0.704009 3.775090 -0.291610
v -0.827827 3.938394 -0.342897
v -0.919832 4.124705 -0.381007
v -0.976489 4.326865 -0.404475
v -0.995619 4.537105 -0.412399
v -0.976489 4.747344 -0.404475
v -0.919832 4.949504 -0.381007
v -0.827827 5.135816 -0.342897
v -0.704009 5.299119 -0.291610
v -0.553136 5.433139 -0.229117
v -0.381007 5.532724 -0.157818
v -0.194236 5.594049 -0.080455
v -0.174807 3.480160 -0.116803
v -0.342897 3.541485 -0.229117
v -0.497810 3.641071 -0.332626
v -0.633592 3.775090 -0.423352
v -0.745025 3.938394 -0.497810
v -0.827827 4.124705 -0.553137
v -0.878817 4.326865 -0.587207
v -0.896033 4.537105 -0.598711
v -0.878817 4.747344 -0.587207
v -0.827827 4.949504 -0.553137
v -0.745025 5.135816 -0.497810
v -0.633592 5.299119 -0.423352
v -0.497810 5.433139 -0.332626
v -0.342897 5.532724 -0.229117
v -0.174807 5.594049 -0.116803
v -0.148661 3.480160 -0.148662
v -0.291610 3.541485 -0.291610
v -0.423352 3.641071 -0.423352
v -0.538825 3.775090 -0.538825
v -0.633591 3.938394 -0.633592
v -0.704009 4.124705 -0.704009
v -0.747372 4.326865 -0.747372
v -0.762014 4.537105 -0.762014
v -0.747372 4.747344 -0.747372
v -0.704009 4.949504 -0.704009
v -0.633591 5.135816 -0.633592
v -0.538825 5.299119 -0.538825
v -0.423352 5.433139 -0.423352
v -0.291610 5.532724 -0.291610
v -0.148661 5.594049 -0.148662
v -0.116803 3.480160 -0.174808
v -0.229117 3.541485 -0.342897
v -0.332626 3.641071 -0.497810
v -0.423352 3.775090 -0.633592
v -0.497809 3.938394 -0.745025
v -0.553137 4.124705 -0.827827
v -0.587206 4.326865 -0.878817
v -0.598710 4.537105 -0.896034
v -0.587206 4.747344 -0.878817
v -0.553137 4.949504 -0.827827
v -0.497809 5.135816 -0.745025
v -0.423352 5.299119 -0.633592
v -0.332626 5.433139 -0.497810
v -0.229117 5.532724 -0.342897
v -0.116803 5.594049 -0.174808
v -0.080455 3.480160 -0.194236
v -0.157818 3.541485 -0.381007
v -0.229116 3.641071 -0.553136
v -0.291610 3.775090 -0.704009
v -0.342897 3.938394 -0.827827
v -0.381007 4.124705 -0.919833
v -0.404475 4.326865 -0.976489
v -0.412399 4.537105 -0.995619
v -0.404475 4.747344 -0.976489
v -0.381007 4.949504 -0.919833
v -0.342897 5.135816 -0.827827
v -0.291610 5.299119 -0.704009
v -0.229116 5.433139 -0.553136
v -0.157818 5.532724 -0.381007
v -0.080455 5.594049 -0.194236
v -0.041016 3.480160 -0.206200
v -0.080455 3.541485 -0.404475
v -0.116802 3.641071 -0.587206
v -0.148662 3.775090 -0.747372
v -0.174807 3.938394 -0.878817
v -0.194236 4.124705 -0.976489
v -0.206199 4.326865 -1.036635
v -0.210239 4.537105 -1.056944
v -0.206199 4.747344 -1.036635
v -0.194236 4.949504 -0.976489
v -0.174807 5.135816 -0.878817
v -0.148662 5.299119 -0.747372
v -0.116802 5.433139 -0.587206
v -0.080455 5.532724 -0.404475
v -0.041016 5.594049 -0.206200
v 0.000000 3.480160 -0.210239
v 0.000000 3.541485 -0.412399
v 0.000000 3.641071 -0.598711
v 0.000000 3.775090 -0.762014
v 0.000000 3.938394 -0.896034
v 0.000000 4.124705 -0.995619
v 0.000000 4.326865 -1.056944
v 0.000000 4.537105 -1.077650
v 0.000000 4.747344 -1.056944
v 0.000000 4.949504 -0.995619
v 0.000000 5.135816 -0.896034
v 0.000000 5.299119 -0.762014
v 0.000000 5.433139 -0.598711
v 0.000000 5.532724 -0.412399
v 0.000000 5.594049 -0.210239
v 0.041016 3.480160 -0.206199
v 0.080455 3.541485 -0.404475
v 0.116803 3.641071 -0.587206
v 0.148662 3.775090 -0.747372
v 0.174808 3.938394 -0.878817
v 0.194236 4.124705 -0.976489
v 0.206200 4.326865 -1.036635
v 0.210240 4.537105 -1.056944
v 0.206200 4.747344 -1.036635
v 0.194236 4.949504 -0.976489
v 0.174808 5.135816 -0.878817
v 0.148662 5.299119 -0.747372
v 0.116803 5.433139 -0.587206
v 0.080455 5.532724 -0.404475
v 0.041016 5.594049 -0.206199
v 0.080455 3.480160 -0.194236
v 0.157818 3.541485 -0.381007
v 0.229117 3.641071 -0.553136
v 0.291610 3.775090 -0.704009
v 0.342897 3.938394 -0.827827
v 0.381007 4.124705 -0.919832
v 0.404475 4.326865 -0.976489
v 0.412399 4.537105 -0.995619
v 0.404475 4.747344 -0.976489
v 0.381007 4.949504 -0.919832
v 0.342897 5.135816 -0.827827
v 0.291610 5.299119 -0.704009
v 0.229117 5.433139 -0.553136
v 0.157818 5.532724 -0.381007
v 0.080455 5.594049 -0.194236
v 0.116803 3.480160 -0.174807
v 0.229117 3.541485 -0.342897
v 0.332626 3.641071 -0.497810
v 0.423352 3.775090 -0.633592
v 0.497810 3.938394 -0.745025
v 0.553136 4.124705 -0.827827
v 0.587207 4.326865 -0.878817
v 0.598711 4.537105 -0.896033
v 0.587207 4.747344 -0.878817
v 0.553136 4.949504 -0.827827
v 0.497810 5.135816 -0.745025
v 0.423352 5.299119 -0.633592
v 0.332626 5.433139 -0.497810
v 0.229117 5.532724 -0.342897
v 0.116803 5.594049 -0.174807
v 0.148662 3.480160 -0.148662
v 0.291610 3.541485 -0.291610
v 0.423352 3.641071 -0.423352
v 0.538826 3.775090 -0.538825
v 0.633592 3.938394 -0.633591
v 0.704009 4.124705 -0.704009
v 0.747372 4.326865 -0.747372
v 0.762014 4.537105 -0.762013
v 0.747372 4.747344 -0.747372
v 0.704009 4.949504 -0.704009
v 0.633592 5.135816 -0.633591
v 0.538826 5.299119 -0.538825
v 0.423352 5.433139 -0.423352
v 0.291610 5.532724 -0.291610
v 0.148662 5.594049 -0.148662
v 0.000000 5.614756 -0.000000
v 0.174808 3.480160 -0.116803
v 0.342897 3.541485 -0.229117
v 0.497810 3.641071 -0.332626
v 0.633592 3.775090 -0.423352
v 0.745025 3.938394 -0.497809
v 0.827827 4.124705 -0.553136
v 0.878817 4.326865 -0.587206
v 0.896034 4.537105 -0.598710
v 0.878817 4.747344 -0.587206
v 0.827827 4.949504 -0.553136
v 0.745025 5.135816 -0.497809
v 0.633592 5.299119 -0.423352
v 0.497810 5.433139 -0.332626
v 0.342897 5.532724 -0.229117
v 0.174808 5.594049 -0.116803
v 0.194236 3.480160 -0.080455
v 0.381007 3.541485 -0.157818
v 0.553136 3.641071 -0.229116
v 0.704009 3.775090 -0.291610
v 0.827827 3.938394 -0.342897
v 0.919832 4.124705 -0.381007
v 0.976489 4.326865 -0.404475
v 0.995619 4.537105 -0.412398
v 0.976489 4.747344 -0.404475
v 0.919832 4.949504 -0.381007
v 0.827827 5.135816 -0.342897
v 0.704009 5.299119 -0.291610
v 0.553136 5.433139 -0.229116
v 0.381007 5.532724 -0.157818
v 0.194236 5.594049 -0.080455
v 0.206199 3.480160 -0.041016
v 0.404475 3.541485 -0.080455
v 0.587206 3.641071 -0.116802
v 0.747372 3.775090 -0.148662
v 0.878817 3.938394 -0.174807
v 0.976489 4.124705 -0.194236
v 1.036635 4.326865 -0.206199
v 1.056943 4.537105 -0.210239
v 1.036635 4.747344 -0.206199
v 0.976489 4.949504 -0.194236
v 0.878817 5.135816 -0.174807
v 0.747372 5.299119 -0.148662
v 0.587206 5.433139 -0.116802
v 0.404475 5.532724 -0.080455
v 0.206199 5.594049 -0.041016
v 0.210239 3.480160 -0.000000
v 0.412399 3.541485 0.000000
v 0.598710 3.641071 0.000000
v 0.762014 3.775090 -0.000000
v 0.896034 3.938394 0.000000
v 0.995619 4.124705 -0.000000
v 1.056944 4.326865 0.000000
v 1.077650 4.537105 0.000000
v 1.056944 4.747344 0.000000
v 0.995619 4.949504 -0.000000
v 0.896034 5.135816 0.000000
v 0.762014 5.299119 -0.000000
v 0.598710 5.433139 0.000000
v 0.412399 5.532724 0.000000
v 0.210239 5.594049 -0.000000
v 0.206199 3.480160 0.041016
v 0.404475 3.541485 0.080455
v 0.587206 3.641071 0.116803
v 0.747372 3.775090 0.148662
v 0.878817 3.938394 0.174808
v 0.976489 4.124705 0.194236
v 1.036635 4.326865 0.206200
v 1.056943 4.537105 0.210240
v 1.036635 4.747344 0.206200
v 0.976489 4.949504 0.194236
v 0.878817 5.135816 0.174808
v 0.747372 5.299119 0.148662
v 0.587206 5.433139 0.116803
v 0.404475 5.532724 0.080455
v 0.206199 5.594049 0.041016
v 0.194236 3.480160 0.080455
v 0.381007 3.541485 0.157818
v 0.553136 3.641071 0.229117
v 0.704009 3.775090 0.291610
v 0.827827 3.938394 0.342897
v 0.919832 4.124705 0.381007
v 0.976489 4.326865 0.404475
v 0.995619 4.537105 0.412399
v 0.976489 4.747344 0.404475
v 0.919832 4.949504 0.381007
v 0.827827 5.135816 0.342897
v 0.704009 5.299119 0.291610
v 0.553136 5.433139 0.229117
v 0.381007 5.532724 0.157818
v 0.194236 5.594049 0.080455
v 0.174807 3.480160 0.116803
v 0.342897 3.541485 0.229117
v 0.497809 3.641071 0.332626
v 0.633592 3.775090 0.423352
v 0.745025 3.938394 0.497810
v 0.827827 4.124705 0.553136
v 0.878816 4.326865 0.587207
v 0.896033 4.537105 0.598711
v 0.878816 4.747344 0.587207
v 0.827827 4.949504 0.553136
v 0.745025 5.135816 0.497810
v 0.633592 5.299119 0.423352
v 0.497809 5.433139 0.332626
v 0.342897 5.532724 0.229117
v 0.174807 5.594049 0.116803
v 0.148662 3.480160 0.148661
v 0.291610 3.541485 0.291610
v 0.423352 3.641071 0.423352
v 0.538825 3.775090 0.538825
v 0.633591 3.938394 0.633591
v 0.704009 4.124705 0.704009
v 0.747372 4.326865 0.747372
v 0.762013 4.537105 0.762014
v 0.747372 4.747344 0.747372
v 0.704009 4.949504 0.704009
v 0.633591 5.135816 0.633591
v 0.538825 5.299119 0.538825
v 0.423352 5.433139 0.423352
v 0.291610 5.532724 0.291610
v 0.148662 5.594049 0.148661
v 0.116803 3.480160 0.174807
v 0.229117 3.541485 0.342897
v 0.332625 3.641071 0.497809
v 0.423352 3.775090 0.633592
v 0.497809 3.938394 0.745025
v 0.553137 4.124705 0.827827
v 0.587206 4.326865 0.878817
v 0.598710 4.537105 0.896033
v 0.587206 4.747344 0.878817
v 0.553137 4.949504 0.827827
v 0.497809 5.135816 0.745025
v 0.423352 5.299119 0.633592
v 0.332625 5.433139 0.497809
v 0.229117 5.532724 0.342897
v 0.116803 5.594049 0.174807
v 0.080455 3.480160 0.194236
v 0.157818 3.541485 0.381007
v 0.229116 3.641071 0.553136
v 0.291610 3.775090 0.704009
v 0.342897 3.938394 0.827827
v 0.381007 4.124705 0.919832
v 0.404475 4.326865 0.976489
v 0.412398 4.537105 0.995619
v 0.404475 4.747344 0.976489
v 0.381007 4.949504 0.919832
v 0.342897 5.135816 0.827827
v 0.291610 5.299119 0.704009
v 0.229116 5.433139 0.553136
v 0.157818 5.532724 0.381007
v 0.080455 5.594049 0.194236
v 0.041016 3.480160 0.206199
v 0.080455 3.541485 0.404475
v 0.116802 3.641071 0.587206
v 0.148662 3.775090 0.747372
v 0.174807 3.938394 0.878816
v 0.194236 4.124705 0.976489
v 0.206199 4.326865 1.036634
v 0.210239 4.537105 1.056943
v 0.206199 4.747344 1.036635
v 0.194236 4.949504 0.976489
v 0.174807 5.135816 0.878816
v 0.148662 5.299119 0.747372
v 0.116802 5.433139 0.587206
v 0.080455 5.532724 0.404475
v 0.041016 5.594049 0.206199
v 0.000000 3.480160 0.210239
v 0.000000 3.541485 0.412399
v -0.000000 3.775090 0.762014
v 0.000000 4.124705 0.995619
v 0.000000 4.949504 0.995619
v -0.000000 5.299119 0.762014
v -0.000000 5.433139 0.598710
v 0.000000 5.532724 0.412399
v 0.000000 5.594049 0.210239
v -0.050000 1.000000 -1.414186
v 0.021939 1.000000 -1.414186
v -0.050000 3.067783 -1.414186
v 0.021939 3.067783 -1.414186
v -0.050000 1.000000 -7.066340
v 0.021939 1.000000 -7.066340
v -0.050000 3.067783 -7.066340
v 0.021939 3.067783 -7.066340
v -0.125215 2.000000 -0.988800
v -0.125215 2.175947 -0.988800
v -0.125215 2.000000 -1.524879
v -0.125215 2.175947 -1.524879
v 0.084849 2.000000 -0.988800
v 0.084849 2.175947 -0.988800
v 0.084849 2.000000 -1.524879
v 0.084849 2.175947 -1.524879
vn 0.0488 -0.8670 0.4958
vn 0.1446 -0.8670 0.4768
vn 0.2349 -0.8670 0.4394
vn 0.3161 -0.8670 0.3852
vn 0.3852 -0.8670 0.3161
vn 0.4394 -0.8670 0.2349
vn 0.4768 -0.8670 0.1446
vn 0.4958 -0.8670 0.0488
vn 0.4958 -0.8670 -0.0488
vn 0.4768 -0.8670 -0.1446
vn 0.4394 -0.8670 -0.2349
vn 0.3852 -0.8670 -0.3161
vn 0.3161 -0.8670 -0.3852
vn 0.2349 -0.8670 -0.4394
vn 0.1446 -0.8670 -0.4768
vn 0.0488 -0.8670 -0.4958
vn -0.0488 -0.8670 -0.4958
vn -0.1446 -0.8670 -0.4768
vn -0.2349 -0.8670 -0.4394
vn -0.3161 -0.8670 -0.3852
vn -0.3852 -0.8670 -0.3161
vn -0.4394 -0.8670 -0.2349
vn -0.4768 -0.8670 -0.1446
vn -0.4958 -0.8670 -0.0488
vn -0.4958 -0.8670 0.0488
vn -0.4768 -0.8670 0.1446
vn -0.4394 -0.8670 0.2349
vn -0.3852 -0.8670 0.3161
vn -0.3161 -0.8670 0.3852
vn -0.2349 -0.8670 0.4394
vn -0.1446 -0.8670 0.4768
vn -0.0488 -0.8670 0.4958
vn -1.0000 -0.0000 -0.0000
vn -0.0000 -0.0000 -1.0000
vn 1.0000 -0.0000 -0.0000
vn -0.0000 -0.0000 1.0000
vn -0.0000 -1.0000 -0.0000
vn -0.0000 1.0000 -0.0000
vn 0.0464 0.8810 -0.4709
vn 0.0865 -0.4696 -0.8786
vn 0.0624 0.7715 -0.6332
vn 0.0759 -0.6326 -0.7708
vn 0.0759 0.6326 -0.7708
vn 0.0624 -0.7715 -0.6332
vn 0.0865 0.4696 -0.8786
vn 0.0464 -0.8810 -0.4709
vn 0.0938 0.2890 -0.9527
vn 0.0286 -0.9565 -0.2902
vn 0.0976 0.0976 -0.9904
vn 0.0097 0.9951 -0.0980
vn 0.0097 -0.9951 -0.0980
vn 0.0975 -0.0976 -0.9904
vn 0.0286 0.9565 -0.2902
vn 0.0938 -0.2890 -0.9527
vn 0.2889 -0.0975 -0.9524
vn 0.0846 0.9565 -0.2790
vn 0.2779 -0.2890 -0.9161
vn 0.1374 0.8810 -0.4528
vn 0.2563 -0.4696 -0.8448
vn 0.1847 0.7715 -0.6088
vn 0.2248 -0.6326 -0.7412
vn 0.2248 0.6326 -0.7412
vn 0.1847 -0.7715 -0.6088
vn 0.2563 0.4696 -0.8448
vn 0.1374 -0.8810 -0.4528
vn 0.2779 0.2890 -0.9161
vn 0.0846 -0.9565 -0.2790
vn 0.2889 0.0976 -0.9524
vn 0.0286 0.9951 -0.0942
vn 0.0286 -0.9951 -0.0942
vn 0.2999 -0.7715 -0.5611
vn 0.4162 0.4696 -0.7786
vn 0.2231 -0.8810 -0.4173
vn 0.4513 0.2890 -0.8443
vn 0.1374 -0.9565 -0.2571
vn 0.4691 0.0976 -0.8777
vn 0.0464 0.9951 -0.0869
vn 0.0464 -0.9951 -0.0869
vn 0.4691 -0.0976 -0.8777
vn 0.1374 0.9565 -0.2571
vn 0.4513 -0.2890 -0.8443
vn 0.2231 0.8810 -0.4173
vn 0.4162 -0.4696 -0.7786
vn 0.2999 0.7715 -0.5611
vn 0.3651 -0.6326 -0.6831
vn 0.3651 0.6326 -0.6831
vn 0.6073 -0.2890 -0.7400
vn 0.3002 0.8810 -0.3658
vn 0.5601 -0.4696 -0.6825
vn 0.4036 0.7715 -0.4918
vn 0.4913 -0.6326 -0.5987
vn 0.4913 0.6326 -0.5987
vn 0.4036 -0.7715 -0.4918
vn 0.5601 0.4696 -0.6825
vn 0.3002 -0.8810 -0.3658
vn 0.6073 0.2890 -0.7400
vn 0.1850 -0.9565 -0.2254
vn 0.6314 0.0975 -0.7693
vn 0.0625 0.9951 -0.0761
vn 0.0625 -0.9951 -0.0761
vn 0.6314 -0.0975 -0.7693
vn 0.1850 0.9565 -0.2254
vn 0.3658 -0.8810 -0.3002
vn 0.7400 0.2890 -0.6073
vn 0.2254 -0.9565 -0.1850
vn 0.7693 0.0976 -0.6314
vn 0.0761 0.9951 -0.0625
vn 0.0761 -0.9951 -0.0625
vn 0.7693 -0.0975 -0.6314
vn 0.2254 0.9566 -0.1850
vn 0.7400 -0.2890 -0.6073
vn 0.3658 0.8810 -0.3002
vn 0.6825 -0.4696 -0.5601
vn 0.4918 0.7715 -0.4036
vn 0.5987 -0.6326 -0.4913
vn 0.5987 0.6326 -0.4913
vn 0.4918 -0.7715 -0.4036
vn 0.6825 0.4696 -0.5601
vn 0.4173 0.8810 -0.2231
vn 0.7786 -0.4696 -0.4162
vn 0.5611 0.7715 -0.2999
vn 0.6831 -0.6326 -0.3651
vn 0.6831 0.6326 -0.3651
vn 0.5611 -0.7715 -0.2999
vn 0.7786 0.4696 -0.4162
vn 0.4173 -0.8810 -0.2230
vn 0.8443 0.2890 -0.4513
vn 0.2571 -0.9565 -0.1374
vn 0.8777 0.0975 -0.4691
vn 0.0869 0.9951 -0.0464
vn 0.0869 -0.9951 -0.0464
vn 0.8777 -0.0975 -0.4691
vn 0.2571 0.9565 -0.1374
vn 0.8443 -0.2890 -0.4513
vn 0.9161 0.2890 -0.2779
vn 0.2790 -0.9565 -0.0846
vn 0.9524 0.0975 -0.2889
vn 0.0942 0.9951 -0.0286
vn 0.0942 -0.9951 -0.0286
vn 0.9524 -0.0975 -0.2889
vn 0.2790 0.9566 -0.0846
vn 0.9161 -0.2890 -0.2779
vn 0.4528 0.8810 -0.1374
vn 0.8448 -0.4696 -0.2563
vn 0.6088 0.7715 -0.1847
vn 0.7412 -0.6326 -0.2248
vn 0.7412 0.6326 -0.2248
vn 0.6088 -0.7715 -0.1847
vn 0.8448 0.4696 -0.2563
vn 0.4528 -0.8810 -0.1374
vn 0.8786 -0.4696 -0.0865
vn 0.6332 0.7715 -0.0624
vn 0.7708 -0.6326 -0.0759
vn 0.7708 0.6326 -0.0759
vn 0.6332 -0.7715 -0.0624
vn 0.8786 0.4696 -0.0865
vn 0.4709 -0.8810 -0.0464
vn 0.9527 0.2890 -0.0938
vn 0.2902 -0.9565 -0.0286
vn 0.9904 0.0975 -0.0976
vn 0.0980 0.9951 -0.0097
vn 0.0980 -0.9951 -0.0097
vn 0.9904 -0.0975 -0.0975
vn 0.2902 0.9566 -0.0286
vn 0.9527 -0.2890 -0.0938
vn 0.4709 0.8810 -0.0464
vn 0.2902 -0.9565 0.0286
vn 0.9904 0.0975 0.0976
vn 0.0980 0.9951 0.0097
vn 0.0980 -0.9951 0.0097
vn 0.9904 -0.0975 0.0976
vn 0.2902 0.9565 0.0286
vn 0.9527 -0.2890 0.0938
vn 0.4709 0.8810 0.0464
vn 0.8786 -0.4696 0.0865
vn 0.6332 0.7715 0.0624
vn 0.7708 -0.6326 0.0759
vn 0.7708 0.6326 0.0759
vn 0.6332 -0.7715 0.0624
vn 0.8786 0.4696 0.0865
vn 0.4709 -0.8810 0.0464
vn 0.9527 0.2890 0.0938
vn 0.6088 0.7715 0.1847
vn 0.7412 -0.6326 0.2248
vn 0.7412 0.6326 0.2248
vn 0.6088 -0.7715 0.1847
vn 0.8448 0.4696 0.2563
vn 0.4528 -0.8810 0.1374
vn 0.9161 0.2890 0.2779
vn 0.2790 -0.9565 0.0846
vn 0.9524 0.0975 0.2889
vn 0.0942 0.9951 0.0286
vn 0.0942 -0.9951 0.0286
vn 0.9524 -0.0975 0.2889
vn 0.2790 0.9566 0.0846
vn 0.9161 -0.2890 0.2779
vn 0.4528 0.8810 0.1374
vn 0.8448 -0.4696 0.2563
vn 0.8777 0.0975 0.4691
vn 0.0869 0.9951 0.0464
vn 0.0869 -0.9951 0.0464
vn 0.8777 -0.0975 0.4691
vn 0.2571 0.9566 0.1374
vn 0.8443 -0.2890 0.4513
vn 0.4173 0.8810 0.2231
vn 0.7786 -0.4696 0.4162
vn 0.5611 0.7715 0.2999
vn 0.6831 -0.6326 0.3651
vn 0.6831 0.6326 0.3651
vn 0.5611 -0.7715 0.2999
vn 0.7786 0.4696 0.4162
vn 0.4173 -0.8810 0.2231
vn 0.8443 0.2890 0.4513
vn 0.2571 -0.9565 0.1374
vn 0.5987 -0.6326 0.4913
vn 0.5987 0.6326 0.4913
vn 0.4918 -0.7715 0.4036
vn 0.6825 0.4696 0.5601
vn 0.3658 -0.8810 0.3002
vn 0.7400 0.2890 0.6073
vn 0.2254 -0.9565 0.1850
vn 0.7693 0.0975 0.6314
vn 0.0761 0.9951 0.0625
vn 0.0761 -0.9951 0.0625
vn 0.7693 -0.0975 0.6314
vn 0.2254 0.9565 0.1850
vn 0.7400 -0.2890 0.6073
vn 0.3658 0.8810 0.3002
vn 0.6825 -0.4696 0.5601
vn 0.4918 0.7715 0.4036
vn 0.0625 -0.9951 0.0761
vn 0.6314 -0.0975 0.7693
vn 0.1850 0.9566 0.2254
vn 0.6073 -0.2890 0.7400
vn 0.3002 0.8810 0.3658
vn 0.5601 -0.4696 0.6825
vn 0.4036 0.7715 0.4918
vn 0.4913 -0.6326 0.5987
vn 0.4913 0.6326 0.5987
vn 0.4036 -0.7715 0.4918
vn 0.5601 0.4696 0.6825
vn 0.3002 -0.8810 0.3658
vn 0.6073 0.2890 0.7400
vn 0.1850 -0.9565 0.2254
vn 0.6314 0.0975 0.7693
vn 0.0625 0.9951 0.0761
vn 0.2999 -0.7715 0.5611
vn 0.4162 0.4696 0.7786
vn 0.2230 -0.8810 0.4173
vn 0.4513 0.2890 0.8443
vn 0.1374 -0.9565 0.2571
vn 0.4691 0.0975 0.8777
vn 0.0464 0.9951 0.0869
vn 0.0464 -0.9951 0.0869
vn 0.4691 -0.0975 0.8777
vn 0.1375 0.9565 0.2571
vn 0.4513 -0.2890 0.8443
vn 0.2231 0.8810 0.4173
vn 0.4162 -0.4696 0.7786
vn 0.2999 0.7715 0.5611
vn 0.3651 -0.6326 0.6831
vn 0.3651 0.6326 0.6831
vn 0.0846 0.9565 0.2790
vn 0.2779 -0.2890 0.9161
vn 0.1374 0.8810 0.4528
vn 0.2563 -0.4696 0.8448
vn 0.1847 0.7715 0.6088
vn 0.2248 -0.6326 0.7412
vn 0.2248 0.6326 0.7412
vn 0.1847 -0.7715 0.6088
vn 0.2563 0.4696 0.8448
vn 0.1374 -0.8810 0.4528
vn 0.2779 0.2890 0.9161
vn 0.0846 -0.9565 0.2790
vn 0.2889 0.0975 0.9524
vn 0.0286 0.9951 0.0942
vn 0.0286 -0.9951 0.0942
vn 0.2889 -0.0975 0.9524
vn 0.0865 0.4696 0.8786
vn 0.0464 -0.8810 0.4709
vn 0.0938 0.2890 0.9527
vn 0.0286 -0.9565 0.2902
vn 0.0975 0.0975 0.9904
vn 0.0096 0.9951 0.0980
vn 0.0097 -0.9951 0.0980
vn 0.0976 -0.0975 0.9904
vn 0.0286 0.9565 0.2902
vn 0.0938 -0.2890 0.9527
vn 0.0464 0.8810 0.4709
vn 0.0865 -0.4696 0.8786
vn 0.0624 0.7715 0.6332
vn 0.0759 -0.6326 0.7708
vn 0.0759 0.6326 0.7708
vn 0.0624 -0.7715 0.6332
vn -0.0938 -0.2890 0.9527
vn -0.0464 0.8810 0.4709
vn -0.0865 -0.4696 0.8786
vn -0.0624 0.7715 0.6332
vn -0.0759 -0.6326 0.7708
vn -0.0759 0.6326 0.7708
vn -0.0624 -0.7715 0.6332
vn -0.0865 0.4696 0.8786
vn -0.0464 -0.8810 0.4709
vn -0.0938 0.2890 0.9527
vn -0.0286 -0.9565 0.2902
vn -0.0976 0.0975 0.9904
vn -0.0096 0.9951 0.0980
vn -0.0097 -0.9951 0.0980
vn -0.0976 -0.0975 0.9904
vn -0.0286 0.9565 0.2902
vn -0.1374 -0.8810 0.4528
vn -0.2779 0.2890 0.9161
vn -0.0846 -0.9565 0.2790
vn -0.2889 0.0975 0.9524
vn -0.0286 0.9951 0.0942
vn -0.0286 -0.9951 0.0942
vn -0.2889 -0.0975 0.9524
vn -0.0846 0.9565 0.2790
vn -0.2779 -0.2890 0.9161
vn -0.1374 0.8810 0.4528
vn -0.2563 -0.4696 0.8448
vn -0.1847 0.7715 0.6088
vn -0.2248 -0.6326 0.7412
vn -0.2248 0.6326 0.7412
vn -0.1847 -0.7715 0.6088
vn -0.2563 0.4696 0.8448
vn -0.2231 0.8810 0.4173
vn -0.4162 -0.4696 0.7786
vn -0.2999 0.7715 0.5611
vn -0.3651 -0.6326 0.6831
vn -0.3651 0.6326 0.6831
vn -0.2999 -0.7715 0.5611
vn -0.4162 0.4696 0.7786
vn -0.2230 -0.8810 0.4173
vn -0.4513 0.2890 0.8443
vn -0.1374 -0.9565 0.2571
vn -0.4691 0.0975 0.8777
vn -0.0464 0.9951 0.0869
vn -0.0464 -0.9951 0.0869
vn -0.4691 -0.0975 0.8777
vn -0.1374 0.9565 0.2571
vn -0.4513 -0.2890 0.8443
vn -0.6073 0.2890 0.7400
vn -0.1850 -0.9565 0.2254
vn -0.6314 0.0975 0.7693
vn -0.0625 0.9951 0.0761
vn -0.0625 -0.9951 0.0761
vn -0.6314 -0.0975 0.7693
vn -0.1850 0.9566 0.2254
vn -0.6073 -0.2890 0.7400
vn -0.3002 0.8810 0.3658
vn -0.5601 -0.4696 0.6825
vn -0.4036 0.7715 0.4918
vn -0.4913 -0.6326 0.5987
vn -0.4913 0.6326 0.5987
vn -0.4036 -0.7715 0.4918
vn -0.5601 0.4696 0.6825
vn -0.3002 -0.8810 0.3658
vn -0.6825 -0.4696 0.5601
vn -0.4918 0.7715 0.4036
vn -0.5987 -0.6326 0.4913
vn -0.5987 0.6326 0.4913
vn -0.4918 -0.7715 0.4036
vn -0.6825 0.4696 0.5601
vn -0.3658 -0.8810 0.3002
vn -0.7400 0.2890 0.6073
vn -0.2254 -0.9565 0.1850
vn -0.7693 0.0975 0.6314
vn -0.0761 0.9951 0.0625
vn -0.0761 -0.9951 0.0625
vn -0.7693 -0.0975 0.6314
vn -0.2254 0.9565 0.1850
vn -0.7400 -0.2890 0.6073
vn -0.3658 0.8810 0.3002
vn -0.2571 -0.9565 0.1374
vn -0.8777 0.0975 0.4691
vn -0.0869 0.9951 0.0464
vn -0.0869 -0.9951 0.0464
vn -0.8777 -0.0975 0.4691
vn -0.2571 0.9565 0.1374
vn -0.8443 -0.2890 0.4513
vn -0.4173 0.8810 0.2231
vn -0.7786 -0.4696 0.4162
vn -0.5611 0.7715 0.2999
vn -0.6831 -0.6326 0.3651
vn -0.6831 0.6326 0.3651
vn -0.5611 -0.7715 0.2999
vn -0.7786 0.4696 0.4162
vn -0.4173 -0.8810 0.2230
vn -0.8443 0.2890 0.4513
vn -0.7412 -0.6326 0.2248
vn -0.7412 0.6326 0.2248
vn -0.6088 -0.7715 0.1847
vn -0.8448 0.4696 0.2563
vn -0.4528 -0.8810 0.1374
vn -0.9161 0.2890 0.2779
vn -0.2790 -0.9565 0.0846
vn -0.9524 0.0975 0.2889
vn -0.0942 0.9951 0.0286
vn -0.0942 -0.9951 0.0286
vn -0.9524 -0.0975 0.2889
vn -0.2790 0.9565 0.0846
vn -0.9161 -0.2890 0.2779
vn -0.4528 0.8810 0.1374
vn -0.8448 -0.4696 0.2563
vn -0.6088 0.7715 0.1847
vn -0.0980 0.9951 0.0097
vn -0.0980 -0.9951 0.0097
vn -0.9904 -0.0975 0.0975
vn -0.2902 0.9566 0.0286
vn -0.9527 -0.2890 0.0938
vn -0.4709 0.8810 0.0464
vn -0.8786 -0.4696 0.0865
vn -0.6332 0.7715 0.0624
vn -0.7708 -0.6326 0.0759
vn -0.7708 0.6326 0.0759
vn -0.6332 -0.7715 0.0624
vn -0.8786 0.4696 0.0865
vn -0.4709 -0.8810 0.0464
vn -0.9527 0.2890 0.0938
vn -0.2902 -0.9565 0.0286
vn -0.9904 0.0975 0.0976
vn -0.7708 0.6326 -0.0759
vn -0.6332 -0.7715 -0.0624
vn -0.8786 0.4696 -0.0865
vn -0.4709 -0.8810 -0.0464
vn -0.9527 0.2890 -0.0938
vn -0.2902 -0.9565 -0.0286
vn -0.9904 0.0975 -0.0975
vn -0.0980 0.9951 -0.0097
vn -0.0980 -0.9951 -0.0097
vn -0.9904 -0.0975 -0.0976
vn -0.2902 0.9566 -0.0286
vn -0.9527 -0.2890 -0.0938
vn -0.4709 0.8810 -0.0464
vn -0.8786 -0.4696 -0.0865
vn -0.6332 0.7715 -0.0624
vn -0.7708 -0.6326 -0.0759
vn -0.9524 -0.0975 -0.2889
vn -0.2790 0.9565 -0.0846
vn -0.9161 -0.2890 -0.2779
vn -0.4528 0.8810 -0.1374
vn -0.8448 -0.4696 -0.2563
vn -0.6088 0.7715 -0.1847
vn -0.7412 -0.6326 -0.2248
vn -0.7412 0.6326 -0.2248
vn -0.6088 -0.7715 -0.1847
vn -0.8448 0.4696 -0.2563
vn -0.4528 -0.8810 -0.1374
vn -0.9161 0.2890 -0.2779
vn -0.2790 -0.9565 -0.0846
vn -0.9524 0.0975 -0.2889
vn -0.0942 0.9951 -0.0286
vn -0.0942 -0.9951 -0.0286
vn -0.5611 -0.7715 -0.2999
vn -0.7786 0.4696 -0.4162
vn -0.4173 -0.8810 -0.2231
vn -0.8443 0.2890 -0.4513
vn -0.2571 -0.9565 -0.1374
vn -0.8777 0.0975 -0.4691
vn -0.0869 0.9951 -0.0464
vn -0.0869 -0.9951 -0.0464
vn -0.8777 -0.0975 -0.4691
vn -0.2571 0.9566 -0.1374
vn -0.8443 -0.2890 -0.4513
vn -0.4173 0.8810 -0.2231
vn -0.7786 -0.4696 -0.4162
vn -0.5611 0.7715 -0.2999
vn -0.6831 -0.6326 -0.3651
vn -0.6831 0.6326 -0.3651
vn -0.2254 0.9566 -0.1850
vn -0.7400 -0.2890 -0.6073
vn -0.3658 0.8810 -0.3002
vn -0.6825 -0.4696 -0.5601
vn -0.4918 0.7715 -0.4036
vn -0.5987 -0.6326 -0.4913
vn -0.5987 0.6326 -0.4913
vn -0.4918 -0.7715 -0.4036
vn -0.6825 0.4696 -0.5601
vn -0.3658 -0.8810 -0.3002
vn -0.7400 0.2890 -0.6073
vn -0.2254 -0.9565 -0.1850
vn -0.7693 0.0975 -0.6314
vn -0.0761 0.9951 -0.0625
vn -0.0761 -0.9951 -0.0625
vn -0.7693 -0.0975 -0.6314
vn -0.5601 0.4696 -0.6825
vn -0.3002 -0.8810 -0.3658
vn -0.6073 0.2890 -0.7400
vn -0.1850 -0.9565 -0.2254
vn -0.6314 0.0975 -0.7693
vn -0.0625 0.9951 -0.0761
vn -0.0625 -0.9951 -0.0761
vn -0.6314 -0.0975 -0.7693
vn -0.1850 0.9565 -0.2254
vn -0.6073 -0.2890 -0.7400
vn -0.3002 0.8810 -0.3658
vn -0.5601 -0.4696 -0.6825
vn -0.4036 0.7715 -0.4918
vn -0.4913 -0.6326 -0.5987
vn -0.4913 0.6326 -0.5987
vn -0.4036 -0.7715 -0.4918
vn -0.4513 -0.2890 -0.8443
vn -0.2230 0.8810 -0.4173
vn -0.4162 -0.4696 -0.7786
vn -0.2999 0.7715 -0.5611
vn -0.3651 -0.6326 -0.6831
vn -0.3651 0.6326 -0.6831
vn -0.2999 -0.7715 -0.5611
vn -0.4162 0.4696 -0.7786
vn -0.2230 -0.8810 -0.4173
vn -0.4513 0.2890 -0.8443
vn -0.1374 -0.9565 -0.2571
vn -0.4691 0.0975 -0.8777
vn -0.0464 0.9951 -0.0869
vn -0.0464 -0.9951 -0.0869
vn -0.4691 -0.0975 -0.8777
vn -0.1374 0.9565 -0.2571
vn -0.1374 -0.8810 -0.4528
vn -0.2779 0.2890 -0.9161
vn -0.0846 -0.9565 -0.2790
vn -0.2889 0.0975 -0.9524
vn -0.0286 0.9951 -0.0942
vn -0.0286 -0.9951 -0.0942
vn -0.2889 -0.0975 -0.9524
vn -0.0846 0.9565 -0.2790
vn -0.2779 -0.2890 -0.9161
vn -0.1374 0.8810 -0.4528
vn -0.2563 -0.4696 -0.8448
vn -0.1847 0.7715 -0.6088
vn -0.2248 -0.6326 -0.7412
vn -0.2248 0.6326 -0.7412
vn -0.1847 -0.7715 -0.6088
vn -0.2563 0.4696 -0.8448
vn -0.0865 -0.4696 -0.8786
vn -0.0624 0.7715 -0.6332
vn -0.0759 -0.6326 -0.7708
vn -0.0759 0.6326 -0.7708
vn -0.0624 -0.7715 -0.6332
vn -0.0865 0.4696 -0.8786
vn -0.0464 -0.8810 -0.4709
vn -0.0938 0.2890 -0.9527
vn -0.0286 -0.9565 -0.2902
vn -0.0976 0.0976 -0.9904
vn -0.0096 0.9951 -0.0980
vn -0.0097 -0.9951 -0.0980
vn -0.0976 -0.0975 -0.9904
vn -0.0286 0.9565 -0.2902
vn -0.0938 -0.2890 -0.9527
vn -0.0464 0.8810 -0.4709
vn 0.0975 0.0975 -0.9904
vn 0.0976 -0.0975 -0.9904
vn 0.2889 -0.0976 -0.9524
vn 0.2889 0.0975 -0.9524
vn 0.4691 0.0975 -0.8777
vn 0.4691 -0.0975 -0.8777
vn 0.1374 0.9566 -0.2571
vn 0.2230 0.8810 -0.4173
vn 0.1850 0.9566 -0.2254
vn 0.7693 0.0975 -0.6314
vn 0.2254 0.9565 -0.1850
vn 0.4173 -0.8810 -0.2231
vn 0.2790 0.9565 -0.0846
vn 0.9904 0.0975 -0.0975
vn 0.9904 -0.0975 -0.0976
vn 0.2902 0.9565 -0.0286
vn 0.2790 -0.9566 0.0846
vn 0.4173 -0.8810 0.2230
vn 0.2254 0.9566 0.1850
vn 0.1850 0.9565 0.2254
vn 0.1374 0.9566 0.2571
vn 0.2230 0.8810 0.4173
vn 0.1373 0.8810 0.4528
vn 0.0976 0.0975 0.9904
vn 0.0975 -0.0975 0.9904
vn -0.0846 0.9566 0.2790
vn -0.2230 0.8810 0.4173
vn -0.1375 0.9565 0.2571
vn -0.1850 0.9565 0.2254
vn -0.4173 -0.8810 0.2231
vn -0.9904 -0.0975 0.0976
vn -0.2902 0.9565 0.0286
vn -0.9904 0.0975 0.0975
vn -0.9904 0.0975 -0.0976
vn -0.2902 0.9565 -0.0286
vn -0.2571 0.9565 -0.1374
vn -0.2254 0.9565 -0.1850
vn -0.2231 -0.8810 -0.4173
vn -0.1375 0.9565 -0.2571
vn -0.0976 0.0975 -0.9904
vn -0.0976 -0.0976 -0.9904
vt 0.900504 0.354155
vt 0.572925 0.500000
vt 0.865898 0.263161
vt 0.815658 0.181268
vt 0.751715 0.111625
vt 0.676526 0.056906
vt 0.592980 0.019215
vt 0.504288 0.000000
vt 0.413858 0.000000
vt 0.325166 0.019215
vt 0.241620 0.056906
vt 0.166431 0.111625
vt 0.102488 0.181269
vt 0.052248 0.263161
vt 0.017642 0.354156
vt 0.000000 0.450754
vt 0.000000 0.549246
vt 0.017642 0.645845
vt 0.052248 0.736839
vt 0.102488 0.818732
vt 0.166431 0.888375
vt 0.241621 0.943094
vt 0.325167 0.980785
vt 0.413859 1.000000
vt 0.504288 1.000000
vt 0.592980 0.980785
vt 0.676526 0.943094
vt 0.751715 0.888375
vt 0.815659 0.818731
vt 0.865898 0.736839
vt 0.900504 0.645844
vt 0.918146 0.549246
vt 0.918146 0.450754
vt 0.215655 0.229949
vt 0.369231 0.500000
vt 0.215655 0.500000
vt 0.369231 0.229949
vt 0.522806 0.500000
vt 0.215655 1.000000
vt 0.369231 0.729949
vt 0.369231 1.000000
vt 0.522806 1.000000
vt 0.610143 0.474866
vt 0.522806 -0.000000
vt 0.610143 0.000000
vt 0.522806 0.038364
vt 0.522806 0.229949
vt 0.215655 0.538364
vt 0.369231 0.538364
vt 0.215655 0.729949
vt 0.369231 0.038364
vt 0.522806 0.538364
vt 0.522806 0.729949
vt 0.610143 0.949731
vt 0.522806 0.474866
vt 0.610143 0.474866
vt 0.215655 0.038364
vt 0.369231 0.000000
vt 0.522806 0.000000
vt 0.514980 1.000000
vt 0.612228 -0.000000
vt 0.612228 1.000000
vt 0.709476 0.391853
vt 0.806724 0.000000
vt 0.806724 0.391853
vt 0.612228 1.000000
vt 0.709476 -0.000000
vt 0.709476 1.000000
vt 0.709476 0.783706
vt 0.806724 0.391853
vt 0.806724 0.783706
vt 0.166667 0.666667
vt 0.340824 0.000000
vt 0.340824 0.666667
vt 0.514981 0.000000
vt 0.514981 0.666667
vt 0.444416 0.365840
vt 0.449786 -0.000000
vt 0.449786 0.365840
vt 0.433677 1.000000
vt 0.439047 -0.000000
vt 0.439047 1.000000
vt 0.444416 0.731680
vt 0.449786 0.365840
vt 0.449786 0.731680
vt 0.444416 -0.000000
vt 0.439047 1.000000
vt 0.439047 -0.000000
vt 0.279339 1.000000
vt 0.125000 0.000000
vt 0.279339 0.000000
vt 0.433677 1.000000
vt 0.279339 0.000000
vt 0.433677 0.000000
vt 0.670092 0.061502
vt 0.666163 0.120160
vt 0.663532 0.061502
vt 0.282911 0.354161
vt 0.293819 0.290122
vt 0.294224 0.344613
vt 0.668819 0.010088
vt 0.660469 0.010088
vt 0.304387 0.331944
vt 0.304043 0.285603
vt 0.216174 0.335074
vt 0.224511 0.292581
vt 0.224915 0.347073
vt 0.643254 0.989912
vt 0.633632 0.938498
vt 0.640192 0.938498
vt 0.235171 0.355855
vt 0.234721 0.295307
vt 0.633043 0.879840
vt 0.637561 0.879840
vt 0.246546 0.361083
vt 0.246069 0.296806
vt 0.633158 0.816192
vt 0.635462 0.816192
vt 0.258119 0.297020
vt 0.258606 0.362557
vt 0.670566 0.183809
vt 0.669749 0.250000
vt 0.668262 0.183808
vt 0.633975 0.750000
vt 0.270407 0.295942
vt 0.270884 0.360220
vt 0.670681 0.120161
vt 0.282462 0.293613
vt 0.270164 0.230397
vt 0.661731 0.125150
vt 0.282232 0.231870
vt 0.657098 0.068746
vt 0.293613 0.234555
vt 0.652281 0.019307
vt 0.303868 0.238347
vt 0.215830 0.288733
vt 0.224305 0.237014
vt 0.312741 0.280230
vt 0.312603 0.243101
vt 0.234492 0.233564
vt 0.628611 0.874850
vt 0.245826 0.231261
vt 0.630899 0.813648
vt 0.257871 0.230191
vt 0.666003 0.186352
vt 0.303868 0.191994
vt 0.312603 0.206682
vt 0.234492 0.173001
vt 0.621138 0.917045
vt 0.624436 0.865062
vt 0.245826 0.166966
vt 0.628771 0.808658
vt 0.257871 0.164637
vt 0.663875 0.191342
vt 0.270164 0.166103
vt 0.657556 0.134938
vt 0.282232 0.171307
vt 0.651037 0.082955
vt 0.293613 0.180049
vt 0.644567 0.037392
vt 0.215655 0.241477
vt 0.224305 0.182508
vt 0.282462 0.114249
vt 0.645583 0.103584
vt 0.293819 0.128698
vt 0.637625 0.063648
vt 0.304043 0.148323
vt 0.638395 -0.000000
vt 0.630232 0.030873
vt 0.312741 0.172370
vt 0.234721 0.115943
vt 0.620679 0.850853
vt 0.246069 0.106394
vt 0.626855 0.801414
vt 0.258119 0.102878
vt 0.661959 0.198586
vt 0.270407 0.105530
vt 0.653799 0.149147
vt 0.615683 0.896416
vt 0.617484 0.832768
vt 0.235171 0.064583
vt 0.246547 0.051871
vt 0.625227 0.792195
vt 0.258606 0.047287
vt 0.660330 0.207805
vt 0.270884 0.051007
vt 0.650604 0.167232
vt 0.282911 0.062889
vt 0.640944 0.129840
vt 0.294224 0.082476
vt 0.631721 0.097065
vt 0.304387 0.109014
vt 0.623289 0.070167
vt 0.606157 0.902935
vt 0.611045 0.870160
vt 0.224511 0.131157
vt 0.637299 0.160713
vt 0.434620 0.039351
vt 0.448494 0.058658
vt 0.436806 0.078645
vt 0.627082 0.136359
vt 0.425926 0.105543
vt 0.424067 0.072126
vt 0.617835 0.116372
vt 0.414811 0.112062
vt 0.416272 0.138317
vt 0.609913 0.101521
vt 0.615974 0.050180
vt 0.614974 0.811502
vt 0.235823 0.020896
vt 0.247239 0.005493
vt 0.623947 0.781354
vt 0.259312 0.000000
vt 0.659051 0.218647
vt 0.271577 0.004629
vt 0.648094 0.188498
vt 0.457961 -0.000000
vt 0.446065 0.014997
vt 0.483859 0.046351
vt 0.496145 0.109998
vt 0.485885 0.100853
vt 0.623065 0.769307
vt 0.472481 0.042195
vt 0.474547 0.097765
vt 0.658169 0.230693
vt 0.462566 0.100853
vt 0.460540 0.046351
vt 0.646365 0.212127
vt 0.450402 0.109998
vt 0.634789 0.195017
vt 0.438524 0.124850
vt 0.623887 0.180020
vt 0.427387 0.144837
vt 0.614078 0.167712
vt 0.417419 0.169191
vt 0.605738 0.158567
vt 0.604890 0.804983
vt 0.613244 0.787873
vt 0.451717 0.167045
vt 0.439707 0.176190
vt 0.622258 0.226371
vt 0.428393 0.188498
vt 0.612163 0.222215
vt 0.418210 0.203495
vt 0.603610 0.219127
vt 0.612363 0.762788
vt 0.497460 0.167045
vt 0.487281 0.161413
vt 0.622616 0.756519
vt 0.475970 0.159511
vt 0.657720 0.243481
vt 0.463961 0.161413
vt 0.645483 0.237212
vt 0.633509 0.231435
vt 0.622616 0.743481
vt 0.487992 0.225703
vt 0.476695 0.225061
vt 0.657720 0.256519
vt 0.464673 0.225703
vt 0.645483 0.262788
vt 0.452387 0.227605
vt 0.633509 0.268566
vt 0.440310 0.230693
vt 0.622258 0.273629
vt 0.428906 0.234848
vt 0.612163 0.277785
vt 0.418613 0.239912
vt 0.603610 0.280873
vt 0.603610 0.768565
vt 0.612363 0.737212
vt 0.498130 0.227605
vt 0.623887 0.319980
vt 0.428906 0.282107
vt 0.614078 0.332288
vt 0.418613 0.277043
vt 0.506718 0.230693
vt 0.498130 0.289351
vt 0.409826 0.271266
vt 0.409826 0.245690
vt 0.487992 0.291253
vt 0.613244 0.712127
vt 0.623065 0.730693
vt 0.476695 0.291895
vt 0.658169 0.269308
vt 0.464673 0.291253
vt 0.646365 0.287873
vt 0.452387 0.289351
vt 0.634789 0.304983
vt 0.440310 0.286263
vt 0.487281 0.355543
vt 0.475970 0.357444
vt 0.659051 0.281354
vt 0.623947 0.718647
vt 0.463961 0.355543
vt 0.648094 0.311502
vt 0.451717 0.349911
vt 0.637299 0.339287
vt 0.439707 0.340765
vt 0.627082 0.363641
vt 0.428393 0.328458
vt 0.617835 0.383628
vt 0.418210 0.313461
vt 0.506718 0.286263
vt 0.497460 0.349911
vt 0.604890 0.695017
vt 0.614974 0.688498
vt 0.427387 0.372119
vt 0.631721 0.402935
vt 0.623289 0.429833
vt 0.417419 0.347765
vt 0.615974 0.449820
vt 0.609913 0.398479
vt 0.611045 0.629840
vt 0.617484 0.667232
vt 0.496145 0.406957
vt 0.485885 0.416103
vt 0.625227 0.707805
vt 0.474547 0.419191
vt 0.660330 0.292195
vt 0.462566 0.416103
vt 0.650604 0.332768
vt 0.450402 0.406957
vt 0.640944 0.370161
vt 0.438524 0.392106
vt 0.626855 0.698586
vt 0.460540 0.470605
vt 0.661959 0.301415
vt 0.653799 0.350853
vt 0.448494 0.458297
vt 0.645582 0.396416
vt 0.436806 0.438311
vt 0.637625 0.436352
vt 0.425926 0.411413
vt 0.630232 0.469127
vt 0.416272 0.378638
vt 0.623687 0.493481
vt 0.620679 0.649147
vt 0.494237 0.458297
vt 0.483859 0.470605
vt 0.472481 0.474761
vt 0.424067 0.444830
vt 0.414811 0.404894
vt 0.393523 0.045666
vt 0.381480 0.064547
vt 0.382456 0.020917
vt 0.621138 0.582955
vt 0.624436 0.634938
vt 0.370581 0.005498
vt 0.369544 0.051815
vt 0.628771 0.691342
vt 0.358354 -0.000000
vt 0.357297 0.047224
vt 0.663875 0.308658
vt 0.457961 0.516956
vt 0.657556 0.365063
vt 0.446065 0.501959
vt 0.651037 0.417045
vt 0.434620 0.477605
vt 0.644567 0.462608
vt 0.638395 0.500000
vt 0.666003 0.313648
vt 0.661731 0.374850
vt 0.345207 0.050951
vt 0.332909 0.114167
vt 0.333740 0.062853
vt 0.657098 0.431254
vt 0.323336 0.082472
vt 0.322588 0.128653
vt 0.652281 0.480693
vt 0.421881 0.471085
vt 0.402608 0.112184
vt 0.391897 0.131113
vt 0.392644 0.084931
vt 0.626716 0.519307
vt 0.627198 0.568746
vt 0.380649 0.115861
vt 0.628611 0.625150
vt 0.368663 0.106290
vt 0.630899 0.686352
vt 0.356398 0.102766
vt 0.344325 0.105426
vt 0.379997 0.172888
vt 0.633043 0.620160
vt 0.367970 0.166829
vt 0.633158 0.683808
vt 0.355691 0.164492
vt 0.668262 0.316192
vt 0.343632 0.165965
vt 0.666163 0.379840
vt 0.332256 0.171194
vt 0.663531 0.438498
vt 0.322001 0.179976
vt 0.660469 0.489913
vt 0.313260 0.191974
vt 0.313760 0.148328
vt 0.401473 0.195104
vt 0.391309 0.182435
vt 0.634905 0.510088
vt 0.633632 0.561502
vt 0.331807 0.231742
vt 0.670091 0.438498
vt 0.321597 0.234468
vt 0.668819 0.489913
vt 0.312916 0.238316
vt 0.401129 0.241446
vt 0.390905 0.236927
vt 0.643254 0.510088
vt 0.640192 0.561502
vt 0.379547 0.233436
vt 0.637561 0.620160
vt 0.367493 0.231106
vt 0.635462 0.683808
vt 0.355205 0.230028
vt 0.670566 0.316192
vt 0.343155 0.230243
vt 0.670681 0.379840
vt 0.641993 0.625150
vt 0.379318 0.295178
vt 0.367250 0.296651
vt 0.637721 0.686352
vt 0.354957 0.296858
vt 0.672825 0.313648
vt 0.342912 0.295788
vt 0.675113 0.374850
vt 0.331578 0.293484
vt 0.676525 0.431254
vt 0.321390 0.290034
vt 0.409826 0.246819
vt 0.400953 0.288701
vt 0.312741 0.285571
vt 0.390699 0.292494
vt 0.651443 0.519307
vt 0.646626 0.568746
vt 0.682586 0.417045
vt 0.331578 0.354048
vt 0.321390 0.344540
vt 0.409689 0.283947
vt 0.400953 0.335055
vt 0.312741 0.331925
vt 0.390699 0.347000
vt 0.659157 0.537392
vt 0.652687 0.582955
vt 0.379318 0.355742
vt 0.646168 0.634938
vt 0.367250 0.360946
vt 0.639849 0.691342
vt 0.354957 0.362411
vt 0.674953 0.308658
vt 0.342912 0.360082
vt 0.679288 0.365063
vt 0.379547 0.412800
vt 0.367493 0.421518
vt 0.649925 0.649147
vt 0.641765 0.698586
vt 0.355205 0.424171
vt 0.676868 0.301415
vt 0.343155 0.420655
vt 0.683045 0.350853
vt 0.331807 0.411106
vt 0.688040 0.396416
vt 0.321597 0.395891
vt 0.409689 0.320367
vt 0.401129 0.378725
vt 0.665329 0.500000
vt 0.666099 0.563648
vt 0.390905 0.398351
vt 0.658141 0.603584
vt 0.332256 0.462465
vt 0.322001 0.442114
vt 0.697567 0.402935
vt 0.691663 0.436352
vt 0.673492 0.530873
vt 0.672003 0.597065
vt 0.401473 0.418034
vt 0.391309 0.444573
vt 0.662780 0.629840
vt 0.379997 0.464159
vt 0.653120 0.667232
vt 0.367970 0.476041
vt 0.643394 0.707805
vt 0.355691 0.479762
vt 0.678497 0.292195
vt 0.343632 0.475178
vt 0.686240 0.332768
vt 0.692679 0.370161
vt 0.644673 0.718647
vt 0.368663 0.522419
vt 0.356398 0.527048
vt 0.679777 0.281354
vt 0.344325 0.521556
vt 0.688750 0.311502
vt 0.332909 0.506153
vt 0.696324 0.339287
vt 0.680434 0.570167
vt 0.693811 0.601521
vt 0.685889 0.616372
vt 0.598626 0.112062
vt 0.587511 0.105542
vt 0.589370 0.072126
vt 0.676642 0.636359
vt 0.578816 0.039351
vt 0.576630 0.078645
vt 0.666425 0.660713
vt 0.564943 0.058658
vt 0.567372 0.014997
vt 0.655630 0.688498
vt 0.555475 -0.000000
vt 0.552897 0.046351
vt 0.679837 0.680020
vt 0.586050 0.144837
vt 0.574913 0.124850
vt 0.668935 0.695017
vt 0.563034 0.109998
vt 0.657359 0.712127
vt 0.550871 0.100853
vt 0.645555 0.730693
vt 0.540955 0.042195
vt 0.538890 0.097765
vt 0.680659 0.269308
vt 0.527551 0.100853
vt 0.529577 0.046351
vt 0.690480 0.287873
vt 0.517291 0.109998
vt 0.519200 0.058658
vt 0.698834 0.304983
vt 0.697986 0.658567
vt 0.689646 0.667712
vt 0.597165 0.138317
vt 0.681108 0.256519
vt 0.646004 0.743481
vt 0.526156 0.161413
vt 0.691361 0.262788
vt 0.515977 0.167045
vt 0.700114 0.268566
vt 0.700114 0.719127
vt 0.691561 0.722215
vt 0.596017 0.169191
vt 0.585044 0.188498
vt 0.681466 0.726371
vt 0.573730 0.176190
vt 0.670215 0.731435
vt 0.561720 0.167045
vt 0.658241 0.737212
vt 0.549475 0.161413
vt 0.537467 0.159511
vt 0.584531 0.234848
vt 0.573127 0.230693
vt 0.681466 0.773629
vt 0.670215 0.768565
vt 0.561050 0.227604
vt 0.658241 0.762788
vt 0.548764 0.225703
vt 0.646004 0.756519
vt 0.536741 0.225061
vt 0.681108 0.243481
vt 0.525444 0.225703
vt 0.691361 0.237212
vt 0.515307 0.227604
vt 0.700114 0.231435
vt 0.700114 0.780873
vt 0.691561 0.777785
vt 0.595227 0.203495
vt 0.525444 0.291253
vt 0.690480 0.212127
vt 0.515307 0.289351
vt 0.603610 0.245690
vt 0.594824 0.277043
vt 0.594824 0.239912
vt 0.506718 0.230693
vt 0.506718 0.286263
vt 0.584531 0.282107
vt 0.679837 0.819980
vt 0.573127 0.286263
vt 0.668935 0.804983
vt 0.561050 0.289351
vt 0.657359 0.787873
vt 0.548764 0.291253
vt 0.645555 0.769307
vt 0.536741 0.291895
vt 0.680659 0.230693
vt 0.676642 0.863641
vt 0.666424 0.839287
vt 0.561720 0.349911
vt 0.655630 0.811502
vt 0.549475 0.355543
vt 0.644673 0.781354
vt 0.537467 0.357444
vt 0.679777 0.218647
vt 0.526156 0.355543
vt 0.688750 0.188498
vt 0.515977 0.349911
vt 0.696324 0.160713
vt 0.698834 0.195017
vt 0.507321 0.340765
vt 0.585044 0.328458
vt 0.689646 0.832288
vt 0.573730 0.340765
vt 0.686240 0.167232
vt 0.517291 0.406957
vt 0.692679 0.129840
vt 0.685889 0.883628
vt 0.687750 0.949819
vt 0.680434 0.929833
vt 0.595227 0.313461
vt 0.586050 0.372119
vt 0.672003 0.902935
vt 0.574913 0.392106
vt 0.662780 0.870160
vt 0.563034 0.406957
vt 0.653120 0.832768
vt 0.550871 0.416102
vt 0.643394 0.792195
vt 0.538890 0.419190
vt 0.678497 0.207805
vt 0.527551 0.416102
vt 0.564943 0.458297
vt 0.649925 0.850853
vt 0.552897 0.470605
vt 0.641765 0.801414
vt 0.540955 0.474761
vt 0.676868 0.198586
vt 0.529577 0.470605
vt 0.683045 0.149147
vt 0.519200 0.458297
vt 0.688040 0.103584
vt 0.680037 0.993481
vt 0.673492 0.969127
vt 0.596017 0.347765
vt 0.587511 0.411413
vt 0.666099 0.936352
vt 0.576630 0.438310
vt 0.658141 0.896416
vt 0.273496 0.521550
vt 0.284394 0.462502
vt 0.285371 0.506131
vt 0.679288 0.134938
vt 0.682586 0.082956
vt 0.296437 0.481383
vt 0.295558 0.442117
vt 0.597165 0.378638
vt 0.589370 0.444830
vt 0.659157 0.962608
vt 0.578816 0.477605
vt 0.652687 0.917045
vt 0.567372 0.501958
vt 0.646168 0.865062
vt 0.555475 0.516955
vt 0.639849 0.808658
vt 0.543584 0.522019
vt 0.674953 0.191342
vt 0.261268 0.527048
vt 0.272459 0.475234
vt 0.641993 0.874850
vt 0.248121 0.476097
vt 0.235823 0.412881
vt 0.247239 0.421622
vt 0.637721 0.813648
vt 0.260211 0.479824
vt 0.259312 0.424282
vt 0.672825 0.186352
vt 0.271577 0.420759
vt 0.675113 0.125150
vt 0.283564 0.411187
vt 0.676525 0.068746
vt 0.294811 0.395936
vt 0.677008 0.019307
vt 0.684721 0.037393
vt 0.304886 0.375591
vt 0.305522 0.414865
vt 0.591556 0.471085
vt 0.581387 0.508478
vt 0.651443 0.980693
vt 0.646626 0.931254
vt 0.226250 0.444577
vt 0.236654 0.464196
vt 0.225503 0.398395
vt 0.612228 -0.000000
vt 0.522806 0.474866
vt 0.522806 0.949731
vt 0.215655 0.000000
vt 0.514980 -0.000000
vt 0.709476 0.000000
vt 0.709476 0.391853
vt 0.166667 0.000000
vt 0.444416 -0.000000
vt 0.433677 -0.000000
vt 0.444416 0.365840
vt 0.444416 1.000000
vt 0.125000 1.000000
vt 0.279339 1.000000
vt 0.634905 0.989912
vt 0.627198 0.931254
vt 0.215655 0.195124
vt 0.612061 0.936352
vt 0.224915 0.084935
vt 0.607400 0.839287
vt 0.494237 0.058658
vt 0.603610 0.731435
vt 0.506115 0.340765
vt 0.607400 0.660713
vt 0.615683 0.603584
vt 0.469852 0.522019
vt 0.432050 0.508478
vt 0.401972 0.151458
vt 0.619003 0.537392
vt 0.409826 0.354678
vt 0.687750 0.550180
vt 0.603610 0.271266
vt 0.693811 0.898479
vt 0.598626 0.404894
vt 0.665329 1.000000
vt 0.216674 0.378721
s 0
f 1/1/1 33/2/1 2/3/1
f 2/3/2 33/2/2 3/4/2
f 3/4/3 33/2/3 4/5/3
f 4/5/4 33/2/4 5/6/4
f 5/6/5 33/2/5 6/7/5
f 6/7/6 33/2/6 7/8/6
f 7/8/7 33/2/7 8/9/7
f 8/9/8 33/2/8 9/10/8
f 9/10/9 33/2/9 10/11/9
f 10/11/10 33/2/10 11/12/10
f 11/12/11 33/2/11 12/13/11
f 12/13/12 33/2/12 13/14/12
f 13/14/13 33/2/13 14/15/13
f 14/15/14 33/2/14 15/16/14
f 15/16/15 33/2/15 16/17/15
f 16/17/16 33/2/16 17/18/16
f 17/18/17 33/2/17 18/19/17
f 18/19/18 33/2/18 19/20/18
f 19/20/19 33/2/19 20/21/19
f 20/21/20 33/2/20 21/22/20
f 21/22/21 33/2/21 22/23/21
f 22/23/22 33/2/22 23/24/22
f 23/24/23 33/2/23 24/25/23
f 24/25/24 33/2/24 25/26/24
f 25/26/25 33/2/25 26/27/25
f 26/27/26 33/2/26 27/28/26
f 27/28/27 33/2/27 28/29/27
f 28/29/28 33/2/28 29/30/28
f 29/30/29 33/2/29 30/31/29
f 30/31/30 33/2/30 31/32/30
f 31/32/31 33/2/31 32/33/31
f 32/33/32 33/2/32 1/1/32
f 35/34/33 36/35/33 34/36/33
f 37/37/34 40/38/34 36/35/34
f 40/39/35 39/40/35 38/41/35
f 39/40/36 34/42/36 38/41/36
f 40/43/37 34/44/37 36/45/37
f 37/37/34 44/46/34 41/47/34
f 44/48/35 49/35/35 45/49/35
f 41/50/35 45/49/35 39/40/35
f 35/34/33 43/51/33 37/37/33
f 39/40/36 42/52/36 35/53/36
f 47/54/38 49/55/38 48/56/38
f 42/57/33 47/58/33 43/51/33
f 45/49/36 46/38/36 42/52/36
f 43/51/34 48/59/34 44/46/34
f 51/60/33 52/61/33 50/62/33
f 53/63/34 56/64/34 52/65/34
f 57/66/35 54/67/35 56/68/35
f 55/69/36 50/70/36 54/71/36
f 56/72/37 50/73/37 52/74/37
f 53/74/38 55/75/38 57/76/38
f 59/77/36 60/78/36 58/79/36
f 61/80/38 64/81/38 60/82/38
f 65/83/34 62/84/34 64/85/34
f 63/86/37 58/87/37 62/88/37
f 64/89/33 58/90/33 60/91/33
f 61/92/35 63/93/35 65/94/35
f 66/95/39 73/96/39 74/97/39
f 543/98/40 82/99/40 71/100/40
f 541/101/41 74/97/41 75/102/41
f 544/103/42 82/99/42 83/104/42
f 541/105/43 76/106/43 67/107/43
f 544/108/44 84/109/44 545/110/44
f 542/111/45 76/106/45 77/112/45
f 545/110/46 85/113/46 546/114/46
f 68/115/47 77/112/47 78/116/47
f 546/114/48 86/117/48 547/118/48
f 68/115/49 79/119/49 69/120/49
f 539/121/50 147/122/50 72/123/50
f 373/124/51 547/118/51 86/117/51
f 69/120/52 80/125/52 70/126/52
f 540/127/53 72/123/53 73/96/53
f 70/126/54 81/128/54 543/98/54
f 79/119/55 95/129/55 80/125/55
f 72/123/56 88/130/56 73/96/56
f 81/128/57 95/129/57 96/131/57
f 73/96/58 89/132/58 74/97/58
f 81/128/59 97/133/59 82/99/59
f 74/97/60 90/134/60 75/102/60
f 83/104/61 97/133/61 98/135/61
f 75/136/62 91/137/62 76/106/62
f 84/138/63 98/135/63 99/139/63
f 77/112/64 91/137/64 92/140/64
f 84/109/65 100/141/65 85/113/65
f 78/116/66 92/140/66 93/142/66
f 86/117/67 100/141/67 101/143/67
f 79/119/68 93/142/68 94/144/68
f 72/123/69 147/122/69 87/145/69
f 373/124/70 86/117/70 101/143/70
f 99/139/71 113/146/71 114/147/71
f 91/137/72 107/148/72 92/140/72
f 100/141/73 114/149/73 115/150/73
f 92/140/74 108/151/74 93/142/74
f 100/141/75 116/152/75 101/143/75
f 93/142/76 109/153/76 94/144/76
f 87/145/77 147/122/77 102/154/77
f 373/124/78 101/143/78 116/152/78
f 94/144/79 110/155/79 95/129/79
f 87/145/80 103/156/80 88/130/80
f 95/129/81 111/157/81 96/131/81
f 88/130/82 104/158/82 89/132/82
f 97/133/83 111/157/83 112/159/83
f 89/132/84 105/160/84 90/134/84
f 98/135/85 112/159/85 113/146/85
f 90/161/86 106/162/86 91/137/86
f 110/155/87 126/163/87 111/157/87
f 103/156/88 119/164/88 104/158/88
f 111/157/89 127/165/89 112/159/89
f 104/158/90 120/166/90 105/160/90
f 112/159/91 128/167/91 113/146/91
f 106/168/92 120/166/92 121/169/92
f 113/146/93 129/170/93 114/147/93
f 106/162/94 122/171/94 107/148/94
f 114/149/95 130/172/95 115/150/95
f 108/151/96 122/171/96 123/173/96
f 116/152/97 130/172/97 131/174/97
f 109/153/98 123/173/98 124/175/98
f 102/154/99 147/122/99 117/176/99
f 373/124/100 116/152/100 131/174/100
f 109/153/101 125/177/101 110/155/101
f 102/154/102 118/178/102 103/156/102
f 129/179/103 145/180/103 130/172/103
f 123/173/104 137/181/104 138/182/104
f 130/172/105 146/183/105 131/174/105
f 123/173/106 139/184/106 124/175/106
f 117/176/107 147/122/107 132/185/107
f 373/124/108 131/174/108 146/183/108
f 124/175/109 140/186/109 125/177/109
f 118/178/110 132/185/110 133/187/110
f 125/177/111 141/188/111 126/163/111
f 119/164/112 133/187/112 134/189/112
f 127/165/113 141/188/113 142/190/113
f 119/164/114 135/191/114 120/166/114
f 127/165/115 143/192/115 128/167/115
f 120/166/116 136/193/116 121/169/116
f 129/179/117 143/194/117 144/195/117
f 121/196/118 137/181/118 122/171/118
f 133/187/119 150/197/119 134/189/119
f 142/198/120 157/199/120 158/200/120
f 134/189/121 151/201/121 135/191/121
f 142/198/122 159/202/122 143/203/122
f 135/191/123 152/204/123 136/193/123
f 144/205/124 159/202/124 160/206/124
f 136/193/125 153/207/125 137/208/125
f 144/195/126 161/209/126 145/180/126
f 138/182/127 153/210/127 154/211/127
f 146/183/128 161/209/128 162/212/128
f 139/184/129 154/211/129 155/213/129
f 132/185/130 147/122/130 148/214/130
f 373/124/131 146/183/131 162/212/131
f 139/184/132 156/215/132 140/186/132
f 132/185/133 149/216/133 133/187/133
f 140/217/134 157/199/134 141/218/134
f 154/219/135 168/220/135 169/221/135
f 161/209/136 177/222/136 162/212/136
f 155/223/137 169/221/137 170/224/137
f 148/214/138 147/122/138 163/225/138
f 373/124/139 162/212/139 177/222/139
f 155/223/140 171/226/140 156/227/140
f 148/214/141 164/228/141 149/216/141
f 156/227/142 172/229/142 157/199/142
f 149/216/143 165/230/143 150/197/143
f 158/200/144 172/229/144 173/231/144
f 150/197/145 166/232/145 151/201/145
f 158/200/146 174/233/146 159/202/146
f 152/204/147 166/232/147 167/234/147
f 160/206/148 174/233/148 175/235/148
f 152/204/149 168/236/149 153/207/149
f 161/209/150 175/237/150 176/238/150
f 173/231/151 187/239/151 188/240/151
f 165/230/152 181/241/152 166/232/152
f 173/231/153 189/242/153 174/233/153
f 167/234/154 181/241/154 182/243/154
f 175/235/155 189/242/155 190/244/155
f 167/234/156 183/245/156 168/236/156
f 175/237/157 191/246/157 176/238/157
f 169/221/158 183/247/158 184/248/158
f 176/238/159 192/249/159 177/222/159
f 170/224/160 184/248/160 185/250/160
f 163/225/161 147/122/161 178/251/161
f 373/124/162 177/222/162 192/249/162
f 170/224/163 186/252/163 171/226/163
f 164/228/164 178/251/164 179/253/164
f 171/226/165 187/239/165 172/229/165
f 164/228/166 180/254/166 165/230/166
f 191/246/167 207/255/167 192/249/167
f 185/250/168 199/256/168 200/257/168
f 178/251/169 147/122/169 193/258/169
f 373/124/170 192/249/170 207/255/170
f 185/250/171 201/259/171 186/252/171
f 179/253/172 193/258/172 194/260/172
f 186/252/173 202/261/173 187/239/173
f 179/253/174 195/262/174 180/254/174
f 188/240/175 202/261/175 203/263/175
f 180/254/176 196/264/176 181/241/176
f 188/240/177 204/265/177 189/242/177
f 182/243/178 196/264/178 197/266/178
f 190/244/179 204/265/179 205/267/179
f 182/243/180 198/268/180 183/245/180
f 190/269/181 206/270/181 191/246/181
f 184/248/182 198/271/182 199/256/182
f 195/262/183 211/272/183 196/264/183
f 203/263/184 219/273/184 204/265/184
f 196/264/185 212/274/185 197/266/185
f 205/267/186 219/273/186 220/275/186
f 197/276/187 213/277/187 198/271/187
f 205/267/188 221/278/188 206/279/188
f 199/256/189 213/277/189 214/280/189
f 207/255/190 221/281/190 222/282/190
f 200/257/191 214/280/191 215/283/191
f 193/258/192 147/122/192 208/284/192
f 373/124/193 207/255/193 222/282/193
f 200/257/194 216/285/194 201/259/194
f 193/258/195 209/286/195 194/260/195
f 201/259/196 217/287/196 202/261/196
f 194/260/197 210/288/197 195/262/197
f 203/263/198 217/287/198 218/289/198
f 215/283/199 229/290/199 230/291/199
f 208/284/200 147/122/200 223/292/200
f 373/124/201 222/282/201 237/293/201
f 215/283/202 231/294/202 216/285/202
f 208/284/203 224/295/203 209/286/203
f 216/285/204 232/296/204 217/287/204
f 210/288/205 224/295/205 225/297/205
f 218/289/206 232/296/206 233/298/206
f 210/288/207 226/299/207 211/272/207
f 218/289/208 234/300/208 219/273/208
f 212/274/209 226/299/209 227/301/209
f 220/275/210 234/300/210 235/302/210
f 212/303/211 228/304/211 213/277/211
f 220/305/212 236/306/212 221/281/212
f 214/280/213 228/304/213 229/290/213
f 222/282/214 236/306/214 237/293/214
f 233/298/215 249/307/215 234/300/215
f 227/301/216 241/308/216 242/309/216
f 235/302/217 249/307/217 250/310/217
f 227/301/218 243/311/218 228/312/218
f 236/306/219 250/313/219 251/314/219
f 229/290/220 243/315/220 244/316/220
f 237/293/221 251/314/221 252/317/221
f 230/291/222 244/316/222 245/318/222
f 223/292/223 147/122/223 238/319/223
f 373/124/224 237/293/224 252/317/224
f 230/291/225 246/320/225 231/294/225
f 223/292/226 239/321/226 224/295/226
f 231/294/227 247/322/227 232/296/227
f 224/295/228 240/323/228 225/297/228
f 233/298/229 247/322/229 248/324/229
f 225/297/230 241/308/230 226/299/230
f 373/124/231 252/317/231 267/325/231
f 245/318/232 261/326/232 246/320/232
f 239/321/233 253/327/233 254/328/233
f 246/320/234 262/329/234 247/322/234
f 240/323/235 254/328/235 255/330/235
f 248/324/236 262/329/236 263/331/236
f 240/323/237 256/332/237 241/308/237
f 248/324/238 264/333/238 249/307/238
f 242/309/239 256/332/239 257/334/239
f 250/310/240 264/333/240 265/335/240
f 242/309/241 258/336/241 243/311/241
f 250/313/242 266/337/242 251/314/242
f 244/316/243 258/338/243 259/339/243
f 251/314/244 267/325/244 252/317/244
f 245/318/245 259/339/245 260/340/245
f 238/319/246 147/122/246 253/327/246
f 265/335/247 279/341/247 280/342/247
f 257/343/248 273/344/248 258/345/248
f 266/337/249 280/346/249 281/347/249
f 259/348/250 273/344/250 274/349/250
f 267/325/251 281/347/251 282/350/251
f 260/351/252 274/349/252 275/352/252
f 253/327/253 147/122/253 268/353/253
f 373/124/254 267/325/254 282/350/254
f 260/340/255 276/354/255 261/326/255
f 253/327/256 269/355/256 254/328/256
f 261/326/257 277/356/257 262/329/257
f 254/328/258 270/357/258 255/330/258
f 262/329/259 278/358/259 263/331/259
f 255/330/260 271/359/260 256/332/260
f 263/331/261 279/341/261 264/333/261
f 257/334/262 271/359/262 272/360/262
f 269/355/263 283/361/263 284/362/263
f 276/363/264 292/364/264 277/365/264
f 269/355/265 285/366/265 270/357/265
f 278/367/266 292/364/266 293/368/266
f 270/357/267 286/369/267 271/359/267
f 278/358/268 294/370/268 279/341/268
f 271/371/269 287/372/269 272/373/269
f 280/346/270 294/374/270 295/375/270
f 272/373/271 288/376/271 273/344/271
f 280/346/272 296/377/272 281/347/272
f 274/349/273 288/376/273 289/378/273
f 281/347/274 297/379/274 282/350/274
f 275/352/275 289/378/275 290/380/275
f 268/353/276 147/122/276 283/361/276
f 373/124/277 282/350/277 297/379/277
f 275/352/278 291/381/278 276/363/278
f 287/372/279 303/382/279 288/376/279
f 295/375/280 311/383/280 296/377/280
f 289/378/281 303/382/281 304/384/281
f 296/377/282 312/385/282 297/379/282
f 290/380/283 304/384/283 305/386/283
f 283/361/284 147/122/284 298/387/284
f 373/124/285 297/379/285 312/385/285
f 290/380/286 306/388/286 291/381/286
f 283/361/287 299/389/287 284/362/287
f 291/381/288 307/390/288 292/364/288
f 285/366/289 299/389/289 300/391/289
f 293/368/290 307/390/290 308/392/290
f 285/366/291 301/393/291 286/369/291
f 293/368/292 309/394/292 294/395/292
f 287/372/293 301/396/293 302/397/293
f 295/375/294 309/398/294 310/399/294
f 306/388/295 322/400/295 307/390/295
f 299/389/296 315/401/296 300/391/296
f 308/392/297 322/400/297 323/402/297
f 300/391/298 316/403/298 301/393/298
f 308/392/299 324/404/299 309/394/299
f 302/397/300 316/405/300 317/406/300
f 310/399/301 324/407/301 325/408/301
f 302/397/302 318/409/302 303/382/302
f 310/399/303 326/410/303 311/383/303
f 304/384/304 318/409/304 319/411/304
f 312/385/305 326/410/305 327/412/305
f 305/386/306 319/411/306 320/413/306
f 298/387/307 147/122/307 313/414/307
f 373/124/308 312/385/308 327/412/308
f 305/386/309 321/415/309 306/388/309
f 298/387/310 314/416/310 299/389/310
f 325/408/311 341/417/311 326/410/311
f 319/411/312 333/418/312 334/419/312
f 326/410/313 342/420/313 327/412/313
f 320/413/314 334/419/314 335/421/314
f 313/414/315 147/122/315 328/422/315
f 373/124/316 327/412/316 342/420/316
f 320/413/317 336/423/317 321/415/317
f 314/416/318 328/422/318 329/424/318
f 321/415/319 337/425/319 322/400/319
f 315/401/320 329/424/320 330/426/320
f 323/402/321 337/425/321 338/427/321
f 315/428/322 331/429/322 316/405/322
f 323/402/323 339/430/323 324/404/323
f 317/406/324 331/429/324 332/431/324
f 325/408/325 339/432/325 340/433/325
f 317/406/326 333/418/326 318/409/326
f 329/424/327 345/434/327 330/426/327
f 338/427/328 352/435/328 353/436/328
f 330/437/329 346/438/329 331/429/329
f 338/427/330 354/439/330 339/430/330
f 332/431/331 346/438/331 347/440/331
f 340/433/332 354/441/332 355/442/332
f 332/431/333 348/443/333 333/418/333
f 340/433/334 356/444/334 341/417/334
f 334/419/335 348/443/335 349/445/335
f 342/420/336 356/444/336 357/446/336
f 335/421/337 349/445/337 350/447/337
f 328/422/338 147/122/338 343/448/338
f 373/124/339 342/420/339 357/446/339
f 335/421/340 351/449/340 336/423/340
f 328/422/341 344/450/341 329/424/341
f 336/423/342 352/435/342 337/425/342
f 349/445/343 363/451/343 364/452/343
f 357/446/344 371/453/344 372/454/344
f 350/447/345 364/452/345 365/455/345
f 343/448/346 147/122/346 358/456/346
f 373/124/347 357/446/347 372/454/347
f 350/447/348 366/457/348 351/449/348
f 343/448/349 359/458/349 344/450/349
f 351/449/350 367/459/350 352/435/350
f 344/450/351 360/460/351 345/434/351
f 353/436/352 367/459/352 368/461/352
f 345/462/353 361/463/353 346/438/353
f 353/464/354 369/465/354 354/441/354
f 347/440/355 361/463/355 362/466/355
f 355/442/356 369/465/356 370/467/356
f 347/440/357 363/451/357 348/443/357
f 356/444/358 370/467/358 371/453/358
f 368/461/359 383/468/359 384/469/359
f 360/460/360 377/470/360 361/471/360
f 368/472/361 385/473/361 369/465/361
f 362/466/362 377/474/362 378/475/362
f 370/467/363 385/473/363 386/476/363
f 362/466/364 379/477/364 363/451/364
f 370/467/365 387/478/365 371/453/365
f 364/452/366 379/477/366 380/479/366
f 371/453/367 388/480/367 372/454/367
f 365/455/368 380/479/368 381/481/368
f 358/456/369 147/122/369 374/482/369
f 373/124/370 372/454/370 388/480/370
f 365/455/371 382/483/371 366/457/371
f 358/456/372 375/484/372 359/458/372
f 366/457/373 383/468/373 367/459/373
f 359/458/374 376/485/374 360/460/374
f 387/478/375 403/486/375 388/480/375
f 381/481/376 395/487/376 396/488/376
f 374/482/377 147/122/377 389/489/377
f 373/124/378 388/480/378 403/486/378
f 381/481/379 397/490/379 382/483/379
f 374/482/380 390/491/380 375/484/380
f 382/483/381 398/492/381 383/468/381
f 376/485/382 390/491/382 391/493/382
f 384/494/383 398/495/383 399/496/383
f 376/497/384 392/498/384 377/499/384
f 384/494/385 400/500/385 385/473/385
f 378/501/386 392/498/386 393/502/386
f 386/476/387 400/500/387 401/503/387
f 378/501/388 394/504/388 379/505/388
f 387/478/389 401/503/389 402/506/389
f 380/507/390 394/504/390 395/508/390
f 399/496/391 415/509/391 400/500/391
f 393/502/392 407/510/392 408/511/392
f 401/503/393 415/509/393 416/512/393
f 393/502/394 409/513/394 394/504/394
f 401/503/395 417/514/395 402/506/395
f 395/508/396 409/513/396 410/515/396
f 402/506/397 418/516/397 403/486/397
f 396/517/398 410/515/398 411/518/398
f 389/489/399 147/122/399 404/519/399
f 373/124/400 403/486/400 418/516/400
f 396/517/401 412/520/401 397/521/401
f 390/491/402 404/519/402 405/522/402
f 397/521/403 413/523/403 398/524/403
f 391/493/404 405/522/404 406/525/404
f 399/496/405 413/526/405 414/527/405
f 391/528/406 407/510/406 392/498/406
f 404/519/407 147/122/407 419/529/407
f 373/124/408 418/516/408 433/530/408
f 411/518/409 427/531/409 412/520/409
f 404/519/410 420/532/410 405/522/410
f 412/520/411 428/533/411 413/523/411
f 405/522/412 421/534/412 406/525/412
f 414/527/413 428/535/413 429/536/413
f 406/537/414 422/538/414 407/510/414
f 414/527/415 430/539/415 415/509/415
f 408/511/416 422/538/416 423/540/416
f 416/512/417 430/539/417 431/541/417
f 408/511/418 424/542/418 409/513/418
f 416/512/419 432/543/419 417/514/419
f 410/515/420 424/542/420 425/544/420
f 417/514/421 433/530/421 418/516/421
f 411/518/422 425/544/422 426/545/422
f 423/540/423 437/546/423 438/547/423
f 431/541/424 445/548/424 446/549/424
f 423/540/425 439/550/425 424/542/425
f 431/541/426 447/551/426 432/543/426
f 425/544/427 439/550/427 440/552/427
f 432/543/428 448/553/428 433/530/428
f 426/545/429 440/552/429 441/554/429
f 419/529/430 147/122/430 434/555/430
f 373/124/431 433/530/431 448/553/431
f 426/545/432 442/556/432 427/531/432
f 420/532/433 434/555/433 435/557/433
f 427/531/434 443/558/434 428/533/434
f 420/532/435 436/559/435 421/534/435
f 429/536/436 443/560/436 444/561/436
f 421/562/437 437/546/437 422/538/437
f 429/536/438 445/548/438 430/539/438
f 441/554/439 457/563/439 442/556/439
f 434/555/440 450/564/440 435/557/440
f 442/556/441 458/565/441 443/558/441
f 435/566/442 451/567/442 436/568/442
f 444/569/443 458/565/443 459/570/443
f 436/568/444 452/571/444 437/546/444
f 444/561/445 460/572/445 445/548/445
f 438/547/446 452/571/446 453/573/446
f 446/549/447 460/572/447 461/574/447
f 438/547/448 454/575/448 439/550/448
f 446/549/449 462/576/449 447/551/449
f 440/552/450 454/575/450 455/577/450
f 447/551/451 463/578/451 448/553/451
f 441/554/452 455/577/452 456/579/452
f 434/555/453 147/122/453 449/580/453
f 373/124/454 448/553/454 463/578/454
f 461/574/455 475/581/455 476/582/455
f 453/573/456 469/583/456 454/575/456
f 462/576/457 476/582/457 477/584/457
f 455/577/458 469/583/458 470/585/458
f 462/576/459 478/586/459 463/578/459
f 456/579/460 470/585/460 471/587/460
f 449/580/461 147/122/461 464/588/461
f 373/124/462 463/578/462 478/586/462
f 456/579/463 472/589/463 457/563/463
f 449/580/464 465/590/464 450/564/464
f 457/563/465 473/591/465 458/565/465
f 450/564/466 466/592/466 451/593/466
f 459/570/467 473/591/467 474/594/467
f 451/567/468 467/595/468 452/571/468
f 459/596/469 475/581/469 460/572/469
f 453/573/470 467/595/470 468/597/470
f 464/588/471 480/598/471 465/590/471
f 472/589/472 488/599/472 473/591/472
f 466/592/473 480/598/473 481/600/473
f 474/601/474 488/602/474 489/603/474
f 466/604/475 482/605/475 467/595/475
f 474/601/476 490/606/476 475/581/476
f 468/597/477 482/605/477 483/607/477
f 476/582/478 490/606/478 491/608/478
f 468/597/479 484/609/479 469/583/479
f 476/582/480 492/610/480 477/584/480
f 470/585/481 484/609/481 485/611/481
f 478/586/482 492/610/482 493/612/482
f 471/587/483 485/611/483 486/613/483
f 464/588/484 147/122/484 479/614/484
f 373/124/485 478/586/485 493/612/485
f 471/587/486 487/615/486 472/589/486
f 483/607/487 499/616/487 484/609/487
f 491/608/488 507/617/488 492/610/488
f 485/611/489 499/616/489 500/618/489
f 492/610/490 508/619/490 493/612/490
f 486/613/491 500/618/491 501/620/491
f 479/614/492 147/122/492 494/621/492
f 373/124/493 493/612/493 508/619/493
f 486/613/494 502/622/494 487/615/494
f 479/614/495 495/623/495 480/598/495
f 487/615/496 503/624/496 488/599/496
f 481/600/497 495/623/497 496/625/497
f 489/603/498 503/626/498 504/627/498
f 481/628/499 497/629/499 482/605/499
f 489/603/500 505/630/500 490/606/500
f 483/607/501 497/629/501 498/631/501
f 491/608/502 505/630/502 506/632/502
f 502/633/503 518/634/503 503/635/503
f 496/625/504 510/636/504 511/637/504
f 504/638/505 518/634/505 519/639/505
f 496/640/506 512/641/506 497/629/506
f 504/627/507 520/642/507 505/630/507
f 498/631/508 512/641/508 513/643/508
f 506/632/509 520/642/509 521/644/509
f 498/631/510 514/645/510 499/616/510
f 506/632/511 522/646/511 507/617/511
f 500/618/512 514/645/512 515/647/512
f 508/619/513 522/646/513 523/648/513
f 501/620/514 515/647/514 516/649/514
f 494/621/515 147/122/515 509/650/515
f 373/124/516 508/619/516 523/648/516
f 501/651/517 517/652/517 502/633/517
f 494/621/518 510/636/518 495/623/518
f 521/644/519 537/653/519 522/646/519
f 515/654/520 529/655/520 530/656/520
f 523/648/521 537/653/521 538/657/521
f 516/658/522 530/656/522 531/659/522
f 509/650/523 147/122/523 524/660/523
f 373/124/524 523/648/524 538/657/524
f 516/658/525 532/661/525 517/652/525
f 509/650/526 525/662/526 510/636/526
f 517/652/527 533/663/527 518/634/527
f 511/637/528 525/662/528 526/664/528
f 519/639/529 533/663/529 534/665/529
f 511/637/530 527/666/530 512/667/530
f 519/639/531 535/668/531 520/669/531
f 513/643/532 527/670/532 528/671/532
f 521/644/533 535/672/533 536/673/533
f 513/674/534 529/655/534 514/675/534
f 533/663/535 71/100/535 534/665/535
f 527/666/536 66/95/536 541/101/536
f 534/665/537 544/103/537 535/668/537
f 528/676/538 541/105/538 67/107/538
f 536/673/539 544/108/539 545/110/539
f 529/655/540 67/107/540 542/111/540
f 536/673/541 546/114/541 537/653/541
f 530/656/542 542/111/542 68/115/542
f 537/653/543 547/118/543 538/657/543
f 531/659/544 68/115/544 69/120/544
f 524/660/545 147/122/545 539/121/545
f 373/124/546 538/657/546 547/118/546
f 531/659/547 70/126/547 532/661/547
f 524/660/548 540/127/548 525/662/548
f 532/661/549 543/98/549 533/663/549
f 526/664/550 540/127/550 66/95/550
f 549/77/36 550/78/36 548/79/36
f 551/80/38 554/81/38 550/82/38
f 555/83/34 552/84/34 554/85/34
f 553/86/37 548/87/37 552/88/37
f 554/89/33 548/90/33 550/91/33
f 551/92/35 553/93/35 555/94/35
f 557/60/33 558/61/33 556/62/33
f 559/63/34 562/64/34 558/65/34
f 562/68/35 561/677/35 560/67/35
f 561/69/36 556/70/36 560/71/36
f 562/72/37 556/73/37 558/74/37
f 559/74/38 561/75/38 563/76/38
f 35/34/33 37/37/33 36/35/33
f 37/37/34 41/47/34 40/38/34
f 40/39/35 41/50/35 39/40/35
f 39/40/36 35/53/36 34/42/36
f 40/43/37 38/678/37 34/44/37
f 37/37/34 43/51/34 44/46/34
f 44/48/35 48/36/35 49/35/35
f 41/50/35 44/48/35 45/49/35
f 35/34/33 42/57/33 43/51/33
f 39/40/36 45/49/36 42/52/36
f 47/54/38 46/679/38 49/55/38
f 42/57/33 46/680/33 47/58/33
f 45/49/36 49/35/36 46/38/36
f 43/51/34 47/58/34 48/59/34
f 51/60/33 53/681/33 52/61/33
f 53/63/34 57/682/34 56/64/34
f 57/66/35 55/677/35 54/67/35
f 55/69/36 51/683/36 50/70/36
f 56/72/37 54/684/37 50/73/37
f 53/74/38 51/73/38 55/75/38
f 59/77/36 61/685/36 60/78/36
f 61/80/38 65/686/38 64/81/38
f 65/83/34 63/687/34 62/84/34
f 63/86/37 59/688/37 58/87/37
f 64/89/33 62/689/33 58/90/33
f 61/92/35 59/690/35 63/93/35
f 66/95/39 540/127/39 73/96/39
f 543/98/40 81/128/40 82/99/40
f 541/101/41 66/95/41 74/97/41
f 544/103/42 71/100/42 82/99/42
f 541/105/43 75/136/43 76/106/43
f 544/108/44 83/691/44 84/109/44
f 542/111/45 67/107/45 76/106/45
f 545/110/46 84/109/46 85/113/46
f 68/115/47 542/111/47 77/112/47
f 546/114/48 85/113/48 86/117/48
f 68/115/551 78/116/551 79/119/551
f 69/120/552 79/119/552 80/125/552
f 540/127/53 539/121/53 72/123/53
f 70/126/54 80/125/54 81/128/54
f 79/119/553 94/144/553 95/129/553
f 72/123/56 87/145/56 88/130/56
f 81/128/57 80/125/57 95/129/57
f 73/96/58 88/130/58 89/132/58
f 81/128/59 96/131/59 97/133/59
f 74/97/60 89/132/60 90/134/60
f 83/104/61 82/99/61 97/133/61
f 75/136/62 90/161/62 91/137/62
f 84/138/63 83/104/63 98/135/63
f 77/112/64 76/106/64 91/137/64
f 84/109/65 99/692/65 100/141/65
f 78/116/66 77/112/66 92/140/66
f 86/117/67 85/113/67 100/141/67
f 79/119/554 78/116/554 93/142/554
f 99/139/71 98/135/71 113/146/71
f 91/137/72 106/162/72 107/148/72
f 100/141/73 99/692/73 114/149/73
f 92/140/74 107/148/74 108/151/74
f 100/141/75 115/150/75 116/152/75
f 93/142/555 108/151/555 109/153/555
f 94/144/556 109/153/556 110/155/556
f 87/145/557 102/154/557 103/156/557
f 95/129/81 110/155/81 111/157/81
f 88/130/558 103/156/558 104/158/558
f 97/133/83 96/131/83 111/157/83
f 89/132/84 104/158/84 105/160/84
f 98/135/85 97/133/85 112/159/85
f 90/161/86 105/693/86 106/162/86
f 110/155/87 125/177/87 126/163/87
f 103/156/88 118/178/88 119/164/88
f 111/157/89 126/163/89 127/165/89
f 104/158/90 119/164/90 120/166/90
f 112/159/91 127/165/91 128/167/91
f 106/168/92 105/160/92 120/166/92
f 113/146/93 128/167/93 129/170/93
f 106/162/94 121/196/94 122/171/94
f 114/149/95 129/179/95 130/172/95
f 108/151/96 107/148/96 122/171/96
f 116/152/97 115/150/97 130/172/97
f 109/153/98 108/151/98 123/173/98
f 109/153/101 124/175/101 125/177/101
f 102/154/559 117/176/559 118/178/559
f 129/179/103 144/195/103 145/180/103
f 123/173/104 122/171/104 137/181/104
f 130/172/105 145/180/105 146/183/105
f 123/173/560 138/182/560 139/184/560
f 124/175/109 139/184/109 140/186/109
f 118/178/561 117/176/561 132/185/561
f 125/177/111 140/186/111 141/188/111
f 119/164/112 118/178/112 133/187/112
f 127/165/113 126/163/113 141/188/113
f 119/164/114 134/189/114 135/191/114
f 127/165/115 142/190/115 143/192/115
f 120/166/116 135/191/116 136/193/116
f 129/179/117 128/694/117 143/194/117
f 121/196/118 136/695/118 137/181/118
f 133/187/119 149/216/119 150/197/119
f 142/198/120 141/218/120 157/199/120
f 134/189/121 150/197/121 151/201/121
f 142/198/122 158/200/122 159/202/122
f 135/191/123 151/201/123 152/204/123
f 144/205/124 143/203/124 159/202/124
f 136/193/125 152/204/125 153/207/125
f 144/195/562 160/696/562 161/209/562
f 138/182/127 137/181/127 153/210/127
f 146/183/128 145/180/128 161/209/128
f 139/184/129 138/182/129 154/211/129
f 139/184/132 155/213/132 156/215/132
f 132/185/133 148/214/133 149/216/133
f 140/217/134 156/227/134 157/199/134
f 154/219/135 153/697/135 168/220/135
f 161/209/136 176/238/136 177/222/136
f 155/223/137 154/219/137 169/221/137
f 155/223/140 170/224/140 171/226/140
f 148/214/563 163/225/563 164/228/563
f 156/227/142 171/226/142 172/229/142
f 149/216/143 164/228/143 165/230/143
f 158/200/144 157/199/144 172/229/144
f 150/197/145 165/230/145 166/232/145
f 158/200/146 173/231/146 174/233/146
f 152/204/147 151/201/147 166/232/147
f 160/206/148 159/202/148 174/233/148
f 152/204/149 167/234/149 168/236/149
f 161/209/150 160/696/150 175/237/150
f 173/231/151 172/229/151 187/239/151
f 165/230/152 180/254/152 181/241/152
f 173/231/153 188/240/153 189/242/153
f 167/234/154 166/232/154 181/241/154
f 175/235/155 174/233/155 189/242/155
f 167/234/156 182/243/156 183/245/156
f 175/237/157 190/269/157 191/246/157
f 169/221/158 168/220/158 183/247/158
f 176/238/159 191/246/159 192/249/159
f 170/224/564 169/221/564 184/248/564
f 170/224/565 185/250/565 186/252/565
f 164/228/566 163/225/566 178/251/566
f 171/226/165 186/252/165 187/239/165
f 164/228/166 179/253/166 180/254/166
f 191/246/167 206/270/167 207/255/167
f 185/250/168 184/248/168 199/256/168
f 185/250/171 200/257/171 201/259/171
f 179/253/172 178/251/172 193/258/172
f 186/252/173 201/259/173 202/261/173
f 179/253/174 194/260/174 195/262/174
f 188/240/175 187/239/175 202/261/175
f 180/254/176 195/262/176 196/264/176
f 188/240/177 203/263/177 204/265/177
f 182/243/178 181/241/178 196/264/178
f 190/244/179 189/242/179 204/265/179
f 182/243/180 197/266/180 198/268/180
f 190/269/181 205/698/181 206/270/181
f 184/248/182 183/247/182 198/271/182
f 195/262/183 210/288/183 211/272/183
f 203/263/184 218/289/184 219/273/184
f 196/264/185 211/272/185 212/274/185
f 205/267/186 204/265/186 219/273/186
f 197/276/187 212/303/187 213/277/187
f 205/267/188 220/275/188 221/278/188
f 199/256/189 198/271/189 213/277/189
f 207/255/567 206/270/567 221/281/567
f 200/257/191 199/256/191 214/280/191
f 200/257/194 215/283/194 216/285/194
f 193/258/195 208/284/195 209/286/195
f 201/259/196 216/285/196 217/287/196
f 194/260/197 209/286/197 210/288/197
f 203/263/198 202/261/198 217/287/198
f 215/283/199 214/280/199 229/290/199
f 215/283/202 230/291/202 231/294/202
f 208/284/203 223/292/203 224/295/203
f 216/285/204 231/294/204 232/296/204
f 210/288/205 209/286/205 224/295/205
f 218/289/206 217/287/206 232/296/206
f 210/288/207 225/297/207 226/299/207
f 218/289/208 233/298/208 234/300/208
f 212/274/209 211/272/209 226/299/209
f 220/275/210 219/273/210 234/300/210
f 212/303/211 227/699/211 228/304/211
f 220/305/568 235/700/568 236/306/568
f 214/280/213 213/277/213 228/304/213
f 222/282/214 221/281/214 236/306/214
f 233/298/215 248/324/215 249/307/215
f 227/301/216 226/299/216 241/308/216
f 235/302/217 234/300/217 249/307/217
f 227/301/218 242/309/218 243/311/218
f 236/306/219 235/700/219 250/313/219
f 229/290/220 228/304/220 243/315/220
f 237/293/221 236/306/221 251/314/221
f 230/291/222 229/290/222 244/316/222
f 230/291/225 245/318/225 246/320/225
f 223/292/569 238/319/569 239/321/569
f 231/294/227 246/320/227 247/322/227
f 224/295/228 239/321/228 240/323/228
f 233/298/229 232/296/229 247/322/229
f 225/297/230 240/323/230 241/308/230
f 245/318/232 260/340/232 261/326/232
f 239/321/570 238/319/570 253/327/570
f 246/320/234 261/326/234 262/329/234
f 240/323/235 239/321/235 254/328/235
f 248/324/236 247/322/236 262/329/236
f 240/323/237 255/330/237 256/332/237
f 248/324/238 263/331/238 264/333/238
f 242/309/239 241/308/239 256/332/239
f 250/310/240 249/307/240 264/333/240
f 242/309/241 257/334/241 258/336/241
f 250/313/242 265/701/242 266/337/242
f 244/316/243 243/315/243 258/338/243
f 251/314/244 266/337/244 267/325/244
f 245/318/245 244/316/245 259/339/245
f 265/335/247 264/333/247 279/341/247
f 257/343/248 272/373/248 273/344/248
f 266/337/249 265/701/249 280/346/249
f 259/348/250 258/345/250 273/344/250
f 267/325/251 266/337/251 281/347/251
f 260/351/252 259/348/252 274/349/252
f 260/340/255 275/702/255 276/354/255
f 253/327/571 268/353/571 269/355/571
f 261/326/257 276/354/257 277/356/257
f 254/328/572 269/355/572 270/357/572
f 262/329/259 277/356/259 278/358/259
f 255/330/260 270/357/260 271/359/260
f 263/331/261 278/358/261 279/341/261
f 257/334/262 256/332/262 271/359/262
f 269/355/263 268/353/263 283/361/263
f 276/363/264 291/381/264 292/364/264
f 269/355/573 284/362/573 285/366/573
f 278/367/266 277/365/266 292/364/266
f 270/357/267 285/366/267 286/369/267
f 278/358/268 293/703/268 294/370/268
f 271/371/269 286/704/269 287/372/269
f 280/346/270 279/705/270 294/374/270
f 272/373/271 287/372/271 288/376/271
f 280/346/272 295/375/272 296/377/272
f 274/349/273 273/344/273 288/376/273
f 281/347/274 296/377/274 297/379/274
f 275/352/275 274/349/275 289/378/275
f 275/352/278 290/380/278 291/381/278
f 287/372/279 302/397/279 303/382/279
f 295/375/280 310/399/280 311/383/280
f 289/378/281 288/376/281 303/382/281
f 296/377/282 311/383/282 312/385/282
f 290/380/574 289/378/574 304/384/574
f 290/380/575 305/386/575 306/388/575
f 283/361/287 298/387/287 299/389/287
f 291/381/288 306/388/288 307/390/288
f 285/366/289 284/362/289 299/389/289
f 293/368/290 292/364/290 307/390/290
f 285/366/291 300/391/291 301/393/291
f 293/368/292 308/392/292 309/394/292
f 287/372/293 286/704/293 301/396/293
f 295/375/294 294/374/294 309/398/294
f 306/388/295 321/415/295 322/400/295
f 299/389/296 314/416/296 315/401/296
f 308/392/297 307/390/297 322/400/297
f 300/391/298 315/401/298 316/403/298
f 308/392/299 323/402/299 324/404/299
f 302/397/300 301/396/300 316/405/300
f 310/399/301 309/398/301 324/407/301
f 302/397/302 317/406/302 318/409/302
f 310/399/303 325/408/303 326/410/303
f 304/384/304 303/382/304 318/409/304
f 312/385/305 311/383/305 326/410/305
f 305/386/306 304/384/306 319/411/306
f 305/386/309 320/413/309 321/415/309
f 298/387/310 313/414/310 314/416/310
f 325/408/311 340/433/311 341/417/311
f 319/411/312 318/409/312 333/418/312
f 326/410/313 341/417/313 342/420/313
f 320/413/314 319/411/314 334/419/314
f 320/413/317 335/421/317 336/423/317
f 314/416/576 313/414/576 328/422/576
f 321/415/319 336/423/319 337/425/319
f 315/401/320 314/416/320 329/424/320
f 323/402/321 322/400/321 337/425/321
f 315/428/322 330/437/322 331/429/322
f 323/402/323 338/427/323 339/430/323
f 317/406/324 316/405/324 331/429/324
f 325/408/325 324/407/325 339/432/325
f 317/406/326 332/431/326 333/418/326
f 329/424/577 344/450/577 345/434/577
f 338/427/328 337/425/328 352/435/328
f 330/437/329 345/462/329 346/438/329
f 338/427/330 353/436/330 354/439/330
f 332/431/331 331/429/331 346/438/331
f 340/433/332 339/432/332 354/441/332
f 332/431/333 347/440/333 348/443/333
f 340/433/334 355/442/334 356/444/334
f 334/419/335 333/418/335 348/443/335
f 342/420/336 341/417/336 356/444/336
f 335/421/337 334/419/337 349/445/337
f 335/421/340 350/447/340 351/449/340
f 328/422/578 343/448/578 344/450/578
f 336/423/342 351/449/342 352/435/342
f 349/445/343 348/443/343 363/451/343
f 357/446/344 356/444/344 371/453/344
f 350/447/345 349/445/345 364/452/345
f 350/447/348 365/455/348 366/457/348
f 343/448/579 358/456/579 359/458/579
f 351/449/350 366/457/350 367/459/350
f 344/450/351 359/458/351 360/460/351
f 353/436/352 352/435/352 367/459/352
f 345/462/353 360/706/353 361/463/353
f 353/464/354 368/472/354 369/465/354
f 347/440/355 346/438/355 361/463/355
f 355/442/356 354/441/356 369/465/356
f 347/440/357 362/466/357 363/451/357
f 356/444/358 355/442/358 370/467/358
f 368/461/359 367/459/359 383/468/359
f 360/460/360 376/485/360 377/470/360
f 368/472/361 384/494/361 385/473/361
f 362/466/362 361/463/362 377/474/362
f 370/467/363 369/465/363 385/473/363
f 362/466/364 378/475/364 379/477/364
f 370/467/365 386/476/365 387/478/365
f 364/452/366 363/451/366 379/477/366
f 371/453/367 387/478/367 388/480/367
f 365/455/368 364/452/368 380/479/368
f 365/455/371 381/481/371 382/483/371
f 358/456/372 374/482/372 375/484/372
f 366/457/373 382/483/373 383/468/373
f 359/458/374 375/484/374 376/485/374
f 387/478/375 402/506/375 403/486/375
f 381/481/376 380/479/376 395/487/376
f 381/481/379 396/488/379 397/490/379
f 374/482/380 389/489/380 390/491/380
f 382/483/381 397/490/381 398/492/381
f 376/485/382 375/484/382 390/491/382
f 384/494/383 383/707/383 398/495/383
f 376/497/384 391/528/384 392/498/384
f 384/494/385 399/496/385 400/500/385
f 378/501/386 377/499/386 392/498/386
f 386/476/387 385/473/387 400/500/387
f 378/501/388 393/502/388 394/504/388
f 387/478/580 386/476/580 401/503/580
f 380/507/390 379/505/390 394/504/390
f 399/496/391 414/527/391 415/509/391
f 393/502/392 392/498/392 407/510/392
f 401/503/393 400/500/393 415/509/393
f 393/502/394 408/511/394 409/513/394
f 401/503/395 416/512/395 417/514/395
f 395/508/396 394/504/396 409/513/396
f 402/506/397 417/514/397 418/516/397
f 396/517/398 395/508/398 410/515/398
f 396/517/401 411/518/401 412/520/401
f 390/491/402 389/489/402 404/519/402
f 397/521/403 412/520/403 413/523/403
f 391/493/404 390/491/404 405/522/404
f 399/496/405 398/495/405 413/526/405
f 391/528/406 406/537/406 407/510/406
f 411/518/581 426/545/581 427/531/581
f 404/519/582 419/529/582 420/532/582
f 412/520/411 427/531/411 428/533/411
f 405/522/412 420/532/412 421/534/412
f 414/527/413 413/526/413 428/535/413
f 406/537/414 421/562/414 422/538/414
f 414/527/415 429/536/415 430/539/415
f 408/511/416 407/510/416 422/538/416
f 416/512/417 415/509/417 430/539/417
f 408/511/418 423/540/418 424/542/418
f 416/512/419 431/541/419 432/543/419
f 410/515/420 409/513/420 424/542/420
f 417/514/421 432/543/421 433/530/421
f 411/518/583 410/515/583 425/544/583
f 423/540/423 422/538/423 437/546/423
f 431/541/424 430/539/424 445/548/424
f 423/540/425 438/547/425 439/550/425
f 431/541/426 446/549/426 447/551/426
f 425/544/427 424/542/427 439/550/427
f 432/543/428 447/551/428 448/553/428
f 426/545/584 425/544/584 440/552/584
f 426/545/432 441/554/432 442/556/432
f 420/532/585 419/529/585 434/555/585
f 427/531/434 442/556/434 443/558/434
f 420/532/435 435/557/435 436/559/435
f 429/536/436 428/535/436 443/560/436
f 421/562/437 436/568/437 437/546/437
f 429/536/438 444/561/438 445/548/438
f 441/554/439 456/579/439 457/563/439
f 434/555/440 449/580/440 450/564/440
f 442/556/441 457/563/441 458/565/441
f 435/566/442 450/708/442 451/567/442
f 444/569/443 443/558/443 458/565/443
f 436/568/444 451/567/444 452/571/444
f 444/561/445 459/596/445 460/572/445
f 438/547/446 437/546/446 452/571/446
f 446/549/447 445/548/447 460/572/447
f 438/547/448 453/573/448 454/575/448
f 446/549/449 461/574/449 462/576/449
f 440/552/450 439/550/450 454/575/450
f 447/551/451 462/576/451 463/578/451
f 441/554/452 440/552/452 455/577/452
f 461/574/455 460/572/455 475/581/455
f 453/573/456 468/597/456 469/583/456
f 462/576/457 461/574/457 476/582/457
f 455/577/458 454/575/458 469/583/458
f 462/576/459 477/584/459 478/586/459
f 456/579/460 455/577/460 470/585/460
f 456/579/463 471/587/463 472/589/463
f 449/580/586 464/588/586 465/590/586
f 457/563/465 472/589/465 473/591/465
f 450/564/466 465/590/466 466/592/466
f 459/570/467 458/565/467 473/591/467
f 451/567/468 466/604/468 467/595/468
f 459/596/469 474/601/469 475/581/469
f 453/573/470 452/571/470 467/595/470
f 464/588/587 479/614/587 480/598/587
f 472/589/472 487/615/472 488/599/472
f 466/592/473 465/590/473 480/598/473
f 474/601/474 473/709/474 488/602/474
f 466/604/475 481/628/475 482/605/475
f 474/601/476 489/603/476 490/606/476
f 468/597/477 467/595/477 482/605/477
f 476/582/478 475/581/478 490/606/478
f 468/597/479 483/607/479 484/609/479
f 476/582/480 491/608/480 492/610/480
f 470/585/481 469/583/481 484/609/481
f 478/586/482 477/584/482 492/610/482
f 471/587/483 470/585/483 485/611/483
f 471/587/486 486/613/486 487/615/486
f 483/607/487 498/631/487 499/616/487
f 491/608/488 506/632/488 507/617/488
f 485/611/489 484/609/489 499/616/489
f 492/610/490 507/617/490 508/619/490
f 486/613/491 485/611/491 500/618/491
f 486/613/494 501/620/494 502/622/494
f 479/614/495 494/621/495 495/623/495
f 487/615/496 502/622/496 503/624/496
f 481/600/497 480/598/497 495/623/497
f 489/603/498 488/602/498 503/626/498
f 481/628/499 496/640/499 497/629/499
f 489/603/500 504/627/500 505/630/500
f 483/607/501 482/605/501 497/629/501
f 491/608/502 490/606/502 505/630/502
f 502/633/503 517/652/503 518/634/503
f 496/625/504 495/623/504 510/636/504
f 504/638/505 503/635/505 518/634/505
f 496/640/506 511/710/506 512/641/506
f 504/627/507 519/711/507 520/642/507
f 498/631/508 497/629/508 512/641/508
f 506/632/509 505/630/509 520/642/509
f 498/631/510 513/643/510 514/645/510
f 506/632/588 521/644/588 522/646/588
f 500/618/512 499/616/512 514/645/512
f 508/619/513 507/617/513 522/646/513
f 501/620/514 500/618/514 515/647/514
f 501/651/517 516/658/517 517/652/517
f 494/621/589 509/650/589 510/636/589
f 521/644/519 536/673/519 537/653/519
f 515/654/520 514/675/520 529/655/520
f 523/648/521 522/646/521 537/653/521
f 516/658/522 515/654/522 530/656/522
f 516/658/525 531/659/525 532/661/525
f 509/650/526 524/660/526 525/662/526
f 517/652/527 532/661/527 533/663/527
f 511/637/528 510/636/528 525/662/528
f 519/639/529 518/634/529 533/663/529
f 511/637/530 526/664/530 527/666/530
f 519/639/531 534/665/531 535/668/531
f 513/643/532 512/641/532 527/670/532
f 521/644/533 520/642/533 535/672/533
f 513/674/534 528/676/534 529/655/534
f 533/663/535 543/98/535 71/100/535
f 527/666/536 526/664/536 66/95/536
f 534/665/537 71/100/537 544/103/537
f 528/676/538 527/712/538 541/105/538
f 536/673/539 535/672/539 544/108/539
f 529/655/540 528/676/540 67/107/540
f 536/673/541 545/110/541 546/114/541
f 530/656/542 529/655/542 542/111/542
f 537/653/543 546/114/543 547/118/543
f 531/659/590 530/656/590 68/115/590
f 531/659/591 69/120/591 70/126/591
f 524/660/548 539/121/548 540/127/548
f 532/661/549 70/126/549 543/98/549
f 526/664/550 525/662/550 540/127/550
f 549/77/36 551/685/36 550/78/36
f 551/80/38 555/686/38 554/81/38
f 555/83/34 553/687/34 552/84/34
f 553/86/37 549/688/37 548/87/37
f 554/89/33 552/689/33 548/90/33
f 551/92/35 549/690/35 553/93/35
f 557/60/33 559/681/33 558/61/33
f 559/63/34 563/682/34 562/64/34
f 562/68/35 563/66/35 561/677/35
f 561/69/36 557/683/36 556/70/36
f 562/72/37 560/684/37 556/73/37
f 559/74/38 557/73/38 561/75/38
